<svg xmlns="http://www.w3.org/2000/svg" xmlns:xlink="http://www.w3.org/1999/xlink" width="190.54" height="136.812" viewBox="0 0 190.54 136.812">
  <defs>
    <linearGradient id="linear-gradient" x1="1.459" y1="0.5" x2="-0.293" y2="0.5" gradientUnits="objectBoundingBox">
      <stop offset="0" stop-color="#166d9c"/>
      <stop offset="0.293" stop-color="#197bac"/>
      <stop offset="0.863" stop-color="#24a0d5"/>
      <stop offset="1" stop-color="#27aae1"/>
    </linearGradient>
    <linearGradient id="linear-gradient-2" x1="1.011" y1="0.655" x2="0.615" y2="0.464" gradientUnits="objectBoundingBox">
      <stop offset="0" stop-color="#166d9c"/>
      <stop offset="0.252" stop-color="#1b7fb0"/>
      <stop offset="0.738" stop-color="#239ed3"/>
      <stop offset="1" stop-color="#27aae1"/>
    </linearGradient>
    <linearGradient id="linear-gradient-3" x1="1.033" y1="0.342" x2="-0.354" y2="0.736" gradientUnits="objectBoundingBox">
      <stop offset="0.413" stop-color="#166d9c"/>
      <stop offset="0.458" stop-color="#1876a7"/>
      <stop offset="0.606" stop-color="#2092c6"/>
      <stop offset="0.732" stop-color="#25a3da"/>
      <stop offset="0.818" stop-color="#27aae1"/>
    </linearGradient>
    <linearGradient id="linear-gradient-4" x1="0.529" y1="2.041" x2="0.475" y2="-0.806" gradientUnits="objectBoundingBox">
      <stop offset="0" stop-color="#166d9c"/>
      <stop offset="0.619" stop-color="#2091c5"/>
      <stop offset="1" stop-color="#27aae1"/>
    </linearGradient>
    <linearGradient id="linear-gradient-5" x1="1.56" y1="0.174" x2="-0.779" y2="0.794" gradientUnits="objectBoundingBox">
      <stop offset="0.289" stop-color="#166d9c"/>
      <stop offset="0.423" stop-color="#1771a1"/>
      <stop offset="0.588" stop-color="#1b7fb0"/>
      <stop offset="0.768" stop-color="#2195c9"/>
      <stop offset="0.904" stop-color="#27aae1"/>
    </linearGradient>
    <linearGradient id="linear-gradient-6" x1="0.687" y1="-1.534" x2="0.426" y2="1.291" gradientUnits="objectBoundingBox">
      <stop offset="0.3" stop-color="#27aae1"/>
      <stop offset="0.409" stop-color="#39b0e3"/>
      <stop offset="0.632" stop-color="#6ac2e9"/>
      <stop offset="0.944" stop-color="#b9ddf4"/>
      <stop offset="1" stop-color="#c8e3f6"/>
    </linearGradient>
    <linearGradient id="linear-gradient-7" x1="1.271" y1="0.493" x2="0.106" y2="0.507" xlink:href="#linear-gradient"/>
  </defs>
  <g id="Baleinha" transform="translate(4.884 4.992)">
    <g id="Grupo_39" data-name="Grupo 39">
      <g id="cor" transform="translate(3.532 3.227)">
        <path id="Caminho_104" data-name="Caminho 104" d="M1274.451,1110.77a17.028,17.028,0,0,1-7.38,2.013l-1.837.088c-.19.015-.376.037-.548.066a5.878,5.878,0,0,0,.53.343,12.614,12.614,0,0,0,1.568.724,31.376,31.376,0,0,0,6.951,1.7,29.931,29.931,0,0,0,14.143-1.237,18.494,18.494,0,0,0,6.023-3.6,17.015,17.015,0,0,0,2.147-2.366,95.043,95.043,0,0,1-17.795-1.071c-.229.31-.47.613-.73.905A11.712,11.712,0,0,1,1274.451,1110.77Z" transform="translate(-1212.995 -996.327)" fill="url(#linear-gradient)"/>
        <path id="Caminho_105" data-name="Caminho 105" d="M1339.444,923.095a15.548,15.548,0,0,1,3.223.279,14.713,14.713,0,0,1,3.006,1.019,11.08,11.08,0,0,0-.539-17.792,11.689,11.689,0,0,0-3.134-1.515,11.4,11.4,0,0,0-3.452-.456,10.7,10.7,0,0,0-3.423.629,10.353,10.353,0,0,0-3.057,1.662,11.353,11.353,0,0,0-2.4,2.524,11.67,11.67,0,0,0-1.486,3.148,11.08,11.08,0,0,0,4.443,12.3l-.089.131c.241-.128.476-.265.723-.383A15.754,15.754,0,0,1,1339.444,923.095Z" transform="translate(-1247.555 -885.17)" fill="#d8e8f4"/>
        <path id="Caminho_106" data-name="Caminho 106" d="M1155.9,964.475a7.167,7.167,0,0,0-1.924,1.127,3.62,3.62,0,0,0-.348.34,1.308,1.308,0,0,0-.189.282,1.391,1.391,0,0,0-.138.66,1.493,1.493,0,0,0,.2.667,1.435,1.435,0,0,0,.217.282c.093.1.277.256.411.382a12.769,12.769,0,0,0,1.927,1.4,17.784,17.784,0,0,0,4.526,1.837c.193.05.39.091.585.136q-.385-4.095-.866-8.18A18.079,18.079,0,0,0,1155.9,964.475Z" transform="translate(-1151.946 -917.387)" fill="#0e6d89"/>
        <path id="Caminho_107" data-name="Caminho 107" d="M1163.127,908.816c.791,3.331,1.389,6.7,1.919,10.08.489,3.385.934,6.778,1.159,10.194.122,1.707.211,3.416.3,5.124.015,1.307.034,2.612.024,3.918a37.521,37.521,0,0,0,8.549.538,69.557,69.557,0,0,0,10.263-1.269,99.025,99.025,0,0,0,10.09-2.537,82.548,82.548,0,0,0,9.725-3.607c.774-.356,1.541-.734,2.24-1.141l1.139-.694a14.15,14.15,0,0,1,1.314-.627,19.5,19.5,0,0,1,5.442-1.235,34.524,34.524,0,0,1,8.394.4c-.168-.4-.345-.791-.5-1.19-.3-.823-.607-1.646-.886-2.472s-.554-1.654-.826-2.483c-.242-.779-.481-1.548-.757-2.3a36.464,36.464,0,0,0-1.882-4.391,27.376,27.376,0,0,0-2.445-3.965,15.671,15.671,0,0,0-3.05-3.1,17.076,17.076,0,0,0-7.932-3.371,17.59,17.59,0,0,0-2.175-.181l-2.553-.043-5.136-.094c-6.848-.194-13.7-.509-20.563-.992-3.433-.254-6.867-.548-10.315-.95-1.1-.124-2.209-.273-3.318-.433.182.612.361,1.225.546,1.838C1162.327,905.488,1162.732,907.151,1163.127,908.816Z" transform="translate(-1156.354 -883.726)" fill="#c8e3f6"/>
        <path id="Caminho_108" data-name="Caminho 108" d="M1324.949,872.08a.437.437,0,0,0-.327-.02l-.626.163-1.253.325a22.844,22.844,0,0,1-10.322.22,18.749,18.749,0,0,1-4.849-1.91,33.451,33.451,0,0,1-4.247-2.951c-.205-.166-.229-.174-.339-.186a.345.345,0,0,0-.268.113.336.336,0,0,0-.1.267.478.478,0,0,0,.052.159l.147.286q.59,1.143,1.135,2.311a39.5,39.5,0,0,1,1.905,4.8,18.476,18.476,0,0,1,.61,2.543,7.116,7.116,0,0,1-.012,2.7,14.434,14.434,0,0,1-1.9,4.872,8.955,8.955,0,0,1-4.131,3.257,16.591,16.591,0,0,1-5.1,1.109,42.554,42.554,0,0,1-10.27-.9,68.717,68.717,0,0,1-19.386-6.682c-.774-.376-1.5-.836-2.236-1.271s-1.479-.869-2.2-1.325c-1.431-.935-2.879-1.852-4.289-2.808-.423-.286-.849-.568-1.274-.851a3.991,3.991,0,0,1-2.124,1.659,6.669,6.669,0,0,1-3.6.093,5.6,5.6,0,0,1-3.131-2,6.7,6.7,0,0,1-.509-.722l-.09-.148a.87.87,0,0,0-.085-.1,1.752,1.752,0,0,0-.751-.368,5.194,5.194,0,0,0-1.151-.159l-.695-.008c-.259,0-.518-.014-.778-.033a8.375,8.375,0,0,1-3.173-.772,4.571,4.571,0,0,1-2.239-2.667,4.866,4.866,0,0,1,.139-3.388l.182-.394.237-.367.012-.017a75.262,75.262,0,0,0-8.517-2.5l-5-.993c-1.671-.3-3.367-.466-5.049-.706l-2.528-.333c-.846-.079-1.7-.129-2.544-.194l-5.09-.373c-3.4-.135-6.807-.187-10.208-.249-1.7.055-3.4.065-5.093.156-1.692.15-3.391.224-5.076.435a94.511,94.511,0,0,0-19.845,4.457,82.271,82.271,0,0,0-18.29,8.829c-.494.322-.369.254-.358.308,0,0,.009,0,.016.008l.146.034.307.071.618.132c.826.172,1.662.314,2.5.448,1.677.258,3.363.485,5.055.666,3.382.377,6.779.649,10.177.883,6.8.446,13.615.713,20.431.884l5.113.11,2.559.051a20.838,20.838,0,0,1,2.6.225,19.7,19.7,0,0,1,9.462,4.121,18.891,18.891,0,0,1,3.581,3.781,30.617,30.617,0,0,1,2.639,4.455,39.458,39.458,0,0,1,1.951,4.782c.56,1.634.976,3.293,1.48,4.91a57.052,57.052,0,0,0,3.66,9.463,18.431,18.431,0,0,0,1.286,2.149,7.291,7.291,0,0,0,1.636,1.765,1.313,1.313,0,0,0,1.823.056,4.047,4.047,0,0,0,.919-2.084l.782.147a4.458,4.458,0,0,1-.833,2.842,2.367,2.367,0,0,1-1.811.885,3.61,3.61,0,0,1-1.807-.512,8.717,8.717,0,0,1-2.29-1.986,16.788,16.788,0,0,1-1.651-2.242,33.932,33.932,0,0,1-2.3-4.281c-.41-.008-.818-.02-1.225-.023-.864-.011-1.727.043-2.581.046a34.618,34.618,0,0,0-5.042.458,18.833,18.833,0,0,0-4.617,1.256q-.517.237-.992.513l-.454.294c-.2.131-.432.28-.639.4-.845.495-1.666.9-2.5,1.285a85.211,85.211,0,0,1-10.076,3.779,101.684,101.684,0,0,1-10.387,2.648,65.832,65.832,0,0,1-10.71,1.292,37.8,37.8,0,0,1-10.938-1.044,19.231,19.231,0,0,1-5.25-2.208,16.051,16.051,0,0,1-1.444-1.041q.409,1.8.946,3.56a52.671,52.671,0,0,0,2.695,7.14,49.394,49.394,0,0,0,3.726,6.615c.675,1.073,1.441,2.087,2.157,3.129.785,1,1.515,2.027,2.339,2.987a74.246,74.246,0,0,0,23.145,19.043,92.362,92.362,0,0,0,58.207,9.374,84.6,84.6,0,0,0,14.35-3.578q-.157-.589-.29-1.184a43.722,43.722,0,0,1-.728-4.816,62.842,62.842,0,0,1-.13-9.595,90.544,90.544,0,0,1,1.224-9.4c.274-1.549.593-3.088.943-4.617.373-1.526.8-3.036,1.217-4.543a110.855,110.855,0,0,0-1.436,18.58,63.291,63.291,0,0,0,.732,9.219c.248,1.517.714,5.23,1.1,6.709.077.28,2.575,4.252,2.575,4.252l.091-.056c.345.557.7,1.106,1.092,1.631a26.613,26.613,0,0,0,3,3.316,23.327,23.327,0,0,0,7.6,4.627,32.943,32.943,0,0,0,8.8,1.863,18.213,18.213,0,0,0,8.566-1.389,2.265,2.265,0,0,0,1.269-2.558,2.316,2.316,0,0,0-.785-1.3,2.245,2.245,0,0,0-.683-.388c-.092-.046-.342-.131-.518-.2l-.576-.212a25.166,25.166,0,0,1-8.288-5.065,37.347,37.347,0,0,1-6.67-8.2l.221-.136c.746-.476-2.724-4.495-2.724-4.495s-.919-1.99-1.328-3a96.272,96.272,0,0,1-5.2-18.1q-.426-2.31-.789-4.626l-.363-2.311-.189-1.148-.256-1.109a8.325,8.325,0,0,0-.873-2.072,4.682,4.682,0,0,0-1.594-1.531,5.413,5.413,0,0,0-4.451-.133,5.681,5.681,0,0,1,4.722-.4,5.274,5.274,0,0,1,2,1.6,9.333,9.333,0,0,1,1.192,2.228l.389,1.183.3,1.147.582,2.271q.582,2.263,1.216,4.5c.812,2.985,1.69,5.939,2.719,8.826a86.411,86.411,0,0,0,3.417,8.463c.371.777.759,1.543,1.156,2.3a60.5,60.5,0,0,0,6.678-5.851,70.815,70.815,0,0,0,4.932-5.536c1.516-1.944,3.008-3.957,4.358-6.065a103.319,103.319,0,0,0,12.382-27.469,131.179,131.179,0,0,0,5.417-29.987l.651-.011q.044,1.032.06,2.066a54.834,54.834,0,0,0,8.454-4.481c1.435-.908,2.842-1.86,4.229-2.842l.515-.368a.5.5,0,0,0,.2-.293A.6.6,0,0,0,1324.949,872.08Zm-110.919-1.97a2.882,2.882,0,0,1-1.077.847,5.8,5.8,0,0,1-2.48.481,4.823,4.823,0,0,1-2.5-.656,2.759,2.759,0,0,1-.958-.993,1.56,1.56,0,0,1-.125-1.3,2.27,2.27,0,0,0,1.61,1.156,8.863,8.863,0,0,0,1.995.2,15.846,15.846,0,0,0,2.08-.077,3.213,3.213,0,0,0,.939-.238,1.392,1.392,0,0,0,.755-.714A1.345,1.345,0,0,1,1214.03,870.11Zm41.383,23.951a13.642,13.642,0,0,1-.653,2.1,11.1,11.1,0,0,1-4.789,5.512,14.2,14.2,0,0,1,3.383,3.05,25.917,25.917,0,0,0-5.37-2.768,16.024,16.024,0,0,0-5.746-.874,19.7,19.7,0,0,0-5.768,1.1,31.318,31.318,0,0,0-5.515,2.541,14.628,14.628,0,0,1,3.079-2.575,12.293,12.293,0,0,1-4.81-5.593,12.866,12.866,0,0,1-1.042-4.041,13.683,13.683,0,0,1,.342-4.227,13.463,13.463,0,0,1,1.679-3.961,14.088,14.088,0,0,1,2.89-3.244,12.558,12.558,0,0,1,3.8-2.2,13.681,13.681,0,0,1,4.33-.881,14.384,14.384,0,0,1,4.416.5,14.81,14.81,0,0,1,4.033,1.918,14.111,14.111,0,0,1,3.237,3.079,13.07,13.07,0,0,1,2.751,8.358A12.926,12.926,0,0,1,1255.413,894.062Z" transform="translate(-1150.3 -861.568)" fill="#27aae1"/>
        <path id="Caminho_109" data-name="Caminho 109" d="M1324.949,872.08a.437.437,0,0,0-.327-.02l-.626.163-1.253.325a22.844,22.844,0,0,1-10.322.22,18.749,18.749,0,0,1-4.849-1.91,33.451,33.451,0,0,1-4.247-2.951c-.205-.166-.229-.174-.339-.186a.345.345,0,0,0-.268.113.336.336,0,0,0-.1.267.478.478,0,0,0,.052.159l.147.286q.59,1.143,1.135,2.311a39.5,39.5,0,0,1,1.905,4.8,18.476,18.476,0,0,1,.61,2.543,7.116,7.116,0,0,1-.012,2.7,14.434,14.434,0,0,1-1.9,4.872,8.955,8.955,0,0,1-4.131,3.257,16.591,16.591,0,0,1-5.1,1.109,42.554,42.554,0,0,1-10.27-.9,68.717,68.717,0,0,1-19.386-6.682c-.774-.376-1.5-.836-2.236-1.271s-1.479-.869-2.2-1.325c-1.431-.935-2.879-1.852-4.289-2.808-.423-.286-.849-.568-1.274-.851a3.991,3.991,0,0,1-2.124,1.659,6.669,6.669,0,0,1-3.6.093,5.6,5.6,0,0,1-3.131-2,6.7,6.7,0,0,1-.509-.722l-.09-.148a.87.87,0,0,0-.085-.1,1.752,1.752,0,0,0-.751-.368,5.194,5.194,0,0,0-1.151-.159l-.695-.008c-.259,0-.518-.014-.778-.033a8.375,8.375,0,0,1-3.173-.772,4.571,4.571,0,0,1-2.239-2.667,4.866,4.866,0,0,1,.139-3.388l.182-.394.237-.367.012-.017a75.262,75.262,0,0,0-8.517-2.5l-5-.993c-1.671-.3-3.367-.466-5.049-.706l-2.528-.333c-.846-.079-1.7-.129-2.544-.194l-5.09-.373c-3.4-.135-6.807-.187-10.208-.249-1.7.055-3.4.065-5.093.156-1.692.15-3.391.224-5.076.435a94.511,94.511,0,0,0-19.845,4.457,82.271,82.271,0,0,0-18.29,8.829c-.494.322-.369.254-.358.308,0,0,.009,0,.016.008l.146.034.307.071.618.132c.826.172,1.662.314,2.5.448,1.677.258,3.363.485,5.055.666,3.382.377,6.779.649,10.177.883,6.8.446,13.615.713,20.431.884l5.113.11,2.559.051a20.838,20.838,0,0,1,2.6.225,19.7,19.7,0,0,1,9.462,4.121,18.891,18.891,0,0,1,3.581,3.781,30.617,30.617,0,0,1,2.639,4.455,39.458,39.458,0,0,1,1.951,4.782c.56,1.634.976,3.293,1.48,4.91a57.052,57.052,0,0,0,3.66,9.463,18.431,18.431,0,0,0,1.286,2.149,7.291,7.291,0,0,0,1.636,1.765,1.313,1.313,0,0,0,1.823.056,4.047,4.047,0,0,0,.919-2.084l.782.147a4.458,4.458,0,0,1-.833,2.842,2.367,2.367,0,0,1-1.811.885,3.61,3.61,0,0,1-1.807-.512,8.717,8.717,0,0,1-2.29-1.986,16.788,16.788,0,0,1-1.651-2.242,33.932,33.932,0,0,1-2.3-4.281c-.41-.008-.818-.02-1.225-.023-.864-.011-1.727.043-2.581.046a34.618,34.618,0,0,0-5.042.458,18.833,18.833,0,0,0-4.617,1.256q-.517.237-.992.513l-.454.294c-.2.131-.432.28-.639.4-.845.495-1.666.9-2.5,1.285a85.211,85.211,0,0,1-10.076,3.779,101.684,101.684,0,0,1-10.387,2.648,65.832,65.832,0,0,1-10.71,1.292,37.8,37.8,0,0,1-10.938-1.044,19.231,19.231,0,0,1-5.25-2.208,16.051,16.051,0,0,1-1.444-1.041q.409,1.8.946,3.56a52.671,52.671,0,0,0,2.695,7.14,49.394,49.394,0,0,0,3.726,6.615c.675,1.073,1.441,2.087,2.157,3.129.785,1,1.515,2.027,2.339,2.987a74.246,74.246,0,0,0,23.145,19.043,92.362,92.362,0,0,0,58.207,9.374,84.6,84.6,0,0,0,14.35-3.578q-.157-.589-.29-1.184a43.722,43.722,0,0,1-.728-4.816,62.842,62.842,0,0,1-.13-9.595,90.544,90.544,0,0,1,1.224-9.4c.274-1.549.593-3.088.943-4.617.373-1.526.8-3.036,1.217-4.543a110.855,110.855,0,0,0-1.436,18.58,63.291,63.291,0,0,0,.732,9.219c.248,1.517.714,5.23,1.1,6.709.077.28,2.575,4.252,2.575,4.252l.091-.056c.345.557.7,1.106,1.092,1.631a26.613,26.613,0,0,0,3,3.316,23.327,23.327,0,0,0,7.6,4.627,32.943,32.943,0,0,0,8.8,1.863,18.213,18.213,0,0,0,8.566-1.389,2.265,2.265,0,0,0,1.269-2.558,2.316,2.316,0,0,0-.785-1.3,2.245,2.245,0,0,0-.683-.388c-.092-.046-.342-.131-.518-.2l-.576-.212a25.166,25.166,0,0,1-8.288-5.065,37.347,37.347,0,0,1-6.67-8.2l.221-.136c.746-.476-2.724-4.495-2.724-4.495s-.919-1.99-1.328-3a96.272,96.272,0,0,1-5.2-18.1q-.426-2.31-.789-4.626l-.363-2.311-.189-1.148-.256-1.109a8.325,8.325,0,0,0-.873-2.072,4.682,4.682,0,0,0-1.594-1.531,5.413,5.413,0,0,0-4.451-.133,5.681,5.681,0,0,1,4.722-.4,5.274,5.274,0,0,1,2,1.6,9.333,9.333,0,0,1,1.192,2.228l.389,1.183.3,1.147.582,2.271q.582,2.263,1.216,4.5c.812,2.985,1.69,5.939,2.719,8.826a86.411,86.411,0,0,0,3.417,8.463c.371.777.759,1.543,1.156,2.3a60.5,60.5,0,0,0,6.678-5.851,70.815,70.815,0,0,0,4.932-5.536c1.516-1.944,3.008-3.957,4.358-6.065a103.319,103.319,0,0,0,12.382-27.469,131.179,131.179,0,0,0,5.417-29.987l.651-.011q.044,1.032.06,2.066a54.834,54.834,0,0,0,8.454-4.481c1.435-.908,2.842-1.86,4.229-2.842l.515-.368a.5.5,0,0,0,.2-.293A.6.6,0,0,0,1324.949,872.08Zm-110.919-1.97a2.882,2.882,0,0,1-1.077.847,5.8,5.8,0,0,1-2.48.481,4.823,4.823,0,0,1-2.5-.656,2.759,2.759,0,0,1-.958-.993,1.56,1.56,0,0,1-.125-1.3,2.27,2.27,0,0,0,1.61,1.156,8.863,8.863,0,0,0,1.995.2,15.846,15.846,0,0,0,2.08-.077,3.213,3.213,0,0,0,.939-.238,1.392,1.392,0,0,0,.755-.714A1.345,1.345,0,0,1,1214.03,870.11Zm41.383,23.951a13.642,13.642,0,0,1-.653,2.1,11.1,11.1,0,0,1-4.789,5.512,14.2,14.2,0,0,1,3.383,3.05,25.917,25.917,0,0,0-5.37-2.768,16.024,16.024,0,0,0-5.746-.874,19.7,19.7,0,0,0-5.768,1.1,31.318,31.318,0,0,0-5.515,2.541,14.628,14.628,0,0,1,3.079-2.575,12.293,12.293,0,0,1-4.81-5.593,12.866,12.866,0,0,1-1.042-4.041,13.683,13.683,0,0,1,.342-4.227,13.463,13.463,0,0,1,1.679-3.961,14.088,14.088,0,0,1,2.89-3.244,12.558,12.558,0,0,1,3.8-2.2,13.681,13.681,0,0,1,4.33-.881,14.384,14.384,0,0,1,4.416.5,14.81,14.81,0,0,1,4.033,1.918,14.111,14.111,0,0,1,3.237,3.079,13.07,13.07,0,0,1,2.751,8.358A12.926,12.926,0,0,1,1255.413,894.062Z" transform="translate(-1150.3 -861.568)" fill="url(#linear-gradient-2)"/>
        <path id="Caminho_110" data-name="Caminho 110" d="M1339.558,916.072a8.452,8.452,0,0,0-1.244-5.5,4.752,4.752,0,0,0-3.65-2.291c-.08,0-.159-.008-.237-.008a5.29,5.29,0,0,0-3.812,1.856,9.038,9.038,0,0,0-2.286,5.3,8.457,8.457,0,0,0,1.244,5.5,4.755,4.755,0,0,0,3.651,2.291C1336.241,923.405,1339.166,920.121,1339.558,916.072Z" transform="translate(-1247.852 -887.167)" fill="#6693cd"/>
      </g>
      <g id="luz_e_sombra" data-name="luz e sombra">
        <path id="Caminho_111" data-name="Caminho 111" d="M1188.938,876.41l-19.818-2.382c-11.2-3.028-9.722-6.105-6.926-6.678,13.17-2.7,47.119-8.641,71.188-3.965,0,0-27.6-16.355-65.451-4.866s-22.422,15.385-21.916,15.563S1188.938,876.41,1188.938,876.41Z" transform="translate(-1142.483 -854.427)" fill="#9cd3ea"/>
        <path id="Caminho_112" data-name="Caminho 112" d="M1175.076,1012.109,1163.3,991.7a4.932,4.932,0,0,1,4.188-6.221c9.543-1.109,27.138-6.37,32.635-14.192,0,0-44.251,13.615-52.454,1.392C1147.674,972.675,1158.725,1009.741,1175.076,1012.109Z" transform="translate(-1145.328 -918.476)" fill="#9cd3ea"/>
        <path id="Caminho_113" data-name="Caminho 113" d="M1392.267,993.327a10.287,10.287,0,0,1,6.075,8.264c.743,6.247-1.19,42.547,23.052,49.755,0,0,9.37,2.448,8.626-3.65s-8.328-5.5-12.642-10.113-14.432-14.36-16.062-33.166C1399.96,988.779,1392.267,993.327,1392.267,993.327Z" transform="translate(-1279.39 -930.221)" fill="url(#linear-gradient-3)"/>
        <path id="Caminho_114" data-name="Caminho 114" d="M1310.083,1082.043c-17.362,6.637-40.733,5.7-72.171-9.54-.5-.244,36.527,9.256,68.994-4.438" transform="translate(-1194.786 -971.523)" fill="url(#linear-gradient-4)"/>
        <path id="Caminho_115" data-name="Caminho 115" d="M1421.633,953.022c16.169-11.416,23.637-27.807,27.128-60.4l4.679-6.9-3.194-13.42,11.326,4.532,12.811-.255-13.838,10.9s-3.025,51.344-32.676,76.975" transform="translate(-1295.486 -864.224)" fill="url(#linear-gradient-5)"/>
        <path id="Caminho_116" data-name="Caminho 116" d="M1158.255,904.656s33.573.748,41.183,1.35,12.781,20.272,12.781,20.272l9.87-.582s-8.879-22.034-14.315-23.1-54.47-4.678-54.47-4.678Z" transform="translate(-1148.414 -878.266)" fill="url(#linear-gradient-6)"/>
        <path id="Caminho_117" data-name="Caminho 117" d="M1328.784,913.616a38.875,38.875,0,0,1,24.856,2.33l-2.068-4.824a11.975,11.975,0,0,0,4.234-4.824c2.385-5.088.722-11.834-4.135-17.132a2.96,2.96,0,0,0,1.871-.492c1.547-1.119,1.2-3.729,1.181-3.84-.7-4.747-12.5-9.544-17.367-5.562-1.337,1.094-2.583,3.206-2.127,5.169.554,2.388,3.381,3.487,4.037,3.741,2.021.786,2.761.136,4.234.591,3.644,1.124,9.409,7.475,8.965,12.406a17.361,17.361,0,0,1-3.845,9.135c-2.5-.03-9.535-.746-13.477.5A31.6,31.6,0,0,0,1328.784,913.616Z" transform="translate(-1244.595 -867.232)" fill="url(#linear-gradient-7)"/>
        <circle id="Elipse_12" data-name="Elipse 12" cx="9.646" cy="9.646" r="9.646" transform="translate(131.775 59.332)" fill="#166d9c" opacity="0.19"/>
        <path id="Caminho_118" data-name="Caminho 118" d="M1392.968,1013.442c-.126.378-2.9,38.175,17.882,49.752,0,0-20.4-3.66-20.4-25.572S1392.968,1013.442,1392.968,1013.442Z" transform="translate(-1278.395 -941.584)" fill="#9cd3ea"/>
        <g id="Grupo_38" data-name="Grupo 38" transform="translate(12.758 21.112)">
          <path id="Caminho_119" data-name="Caminho 119" d="M1170.716,901.994s4.627,23.738,4.674,30.179" transform="translate(-1170.716 -901.611)" fill="#176b87"/>
          <path id="Caminho_120" data-name="Caminho 120" d="M1192.934,949.879s-1.507-22.911-3.7-28.845" transform="translate(-1180.867 -912.047)" fill="#176b87"/>
          <path id="Caminho_121" data-name="Caminho 121" d="M1203.669,927.465c0-.547-2.183-18.97-3.829-26.318" transform="translate(-1186.679 -901.147)" fill="#176b87"/>
          <path id="Caminho_122" data-name="Caminho 122" d="M1220.142,903.072s4.105,20.533,3.832,27.266" transform="translate(-1197.806 -902.202)" fill="#176b87"/>
        </g>
        <circle id="Elipse_13" data-name="Elipse 13" cx="4.185" cy="4.185" r="4.185" transform="translate(133.938 48.012)" fill="#166d9c" opacity="0.09"/>
        <path id="Caminho_123" data-name="Caminho 123" d="M1358.095,902.552s12.951,10.217.785,19.855l4.219,1.39s8.8-8.558,4.009-15.425S1359.567,901.311,1358.095,902.552Z" transform="translate(-1260.661 -880.481)" fill="#98cbe2"/>
      </g>
      <g id="line" transform="translate(0.411 0.292)">
        <path id="Caminho_124" data-name="Caminho 124" d="M1322.22,867.167a2.031,2.031,0,0,0-1.488-.152l-.6.135-1.206.271a22.062,22.062,0,0,1-9.541,0,16.852,16.852,0,0,1-4.327-1.8,31.928,31.928,0,0,1-3.955-2.866l-.123-.1a3.59,3.59,0,0,0-.37-.246,2.419,2.419,0,0,0-3.538,2.364,2.59,2.59,0,0,0,.275.913l.141.279c.377.744.74,1.493,1.081,2.248a37.531,37.531,0,0,1,1.769,4.562,16.41,16.41,0,0,1,.52,2.242,5.07,5.07,0,0,1,0,1.865,12.312,12.312,0,0,1-1.618,4.145c-1.493,2.228-4.451,3.136-7.569,3.328a40.552,40.552,0,0,1-9.685-.944c-1.624-.364-3.252-.684-4.863-1.165l-2.423-.664c-.8-.23-1.566-.527-2.35-.786l-2.338-.8L1267.75,879a47.384,47.384,0,0,1-4.428-2.19c-.737-.364-1.439-.819-2.152-1.247s-1.424-.852-2.129-1.3c-1.407-.935-2.805-1.837-4.222-2.813q-.968-.666-1.957-1.33c.01-.223.014-.443.013-.66a10.651,10.651,0,0,0-.273-1.718,7.858,7.858,0,0,0-1.625-3.119,9.06,9.06,0,0,0-2.673-2.034,16.315,16.315,0,0,0-5.949-1.56,21.211,21.211,0,0,0-3.032-.089,8.836,8.836,0,0,0-2.266.465c-.179-.065-.359-.129-.537-.2l-2.5-.906-1.249-.451c-.42-.136-.847-.242-1.271-.364-1.7-.454-3.39-.991-5.1-1.373l-5.157-1.045c-1.722-.317-3.456-.493-5.184-.745l-2.594-.35c-.865-.084-1.732-.138-2.6-.209l-5.2-.4c-3.464-.15-6.916-.217-10.386-.291-1.754.049-3.51.054-5.263.142-1.749.147-3.505.219-5.248.431a97.664,97.664,0,0,0-20.545,4.539,85.371,85.371,0,0,0-19.082,9.142l-.283.189-.07.047a3.177,3.177,0,0,0,.955,5.706l.22.054.345.082.678.149c.9.191,1.772.344,2.647.489.231.037,5.431,25.471,3.743,26.1-.911.352-5.676,1.517-6.518,2.2a6.145,6.145,0,0,0-.619.58,3.933,3.933,0,0,0-.583.825,4.057,4.057,0,0,0-.462,1.958,4.3,4.3,0,0,0,.062.586,51.306,51.306,0,0,0,1.1,7.594,53.823,53.823,0,0,0,2.39,7.672,53.071,53.071,0,0,0,3.531,7.229c.643,1.166,1.379,2.277,2.07,3.416.759,1.093,1.468,2.226,2.274,3.287a78.12,78.12,0,0,0,23.808,21.032,92.248,92.248,0,0,0,28.671,10.362,10.391,10.391,0,0,1-2.443,1.288c-.468.2-.982.335-1.465.5a15.327,15.327,0,0,1-1.54.3,12.225,12.225,0,0,1-1.573.208,12.663,12.663,0,0,1-1.614.064c-.273-.009-.544.011-.816.017l-1.033.028c-.218.018-.4.019-.649.057l-.356.05-.422.091a3.786,3.786,0,0,0-.5.154l-.275.108c-.128.061-.254.128-.377.2l-.182.112-.091.061-.13.1a4.07,4.07,0,0,0-.479.465,3.218,3.218,0,0,0-.468.759,2.813,2.813,0,0,0-.246.931,2.945,2.945,0,0,0,.033.9,3.822,3.822,0,0,0,.209.709,4.727,4.727,0,0,0,.226.435l.13.207.1.141a4.979,4.979,0,0,0,.762.791,8.018,8.018,0,0,0,1.173.779,15.988,15.988,0,0,0,2.031.924,33.159,33.159,0,0,0,7.8,1.829,37.591,37.591,0,0,0,7.9.033,27.651,27.651,0,0,0,7.736-2,19.994,19.994,0,0,0,6.613-4.565,17.438,17.438,0,0,0,2.978-4.248,93.152,93.152,0,0,0,9.893-1.106,90.08,90.08,0,0,0,15.347-4.059,26.405,26.405,0,0,0,13.839,12.6,35.291,35.291,0,0,0,4.846,1.466,32.4,32.4,0,0,0,5.041.773,24.693,24.693,0,0,0,5.25-.161,20.65,20.65,0,0,0,2.643-.541c.437-.127.874-.254,1.3-.412.217-.073.432-.151.644-.24l.32-.129a3.336,3.336,0,0,0,.368-.167,6.188,6.188,0,0,0,2.943-2.926,6.262,6.262,0,0,0-1.716-7.571,6.143,6.143,0,0,0-1.8-1l-1.105-.4a22.16,22.16,0,0,1-7.15-4.226,33.3,33.3,0,0,1-5.744-6.5c-.25-.372-.487-.756-.728-1.136a66.022,66.022,0,0,0,7.6-6.881l1.364-1.456,1.3-1.512q.661-.747,1.267-1.54l1.223-1.573c1.548-2.168,3.02-4.354,4.344-6.629a96.2,96.2,0,0,0,6.887-14.13,113.558,113.558,0,0,0,4.713-14.905,130.994,130.994,0,0,0,2.621-15.343,106.769,106.769,0,0,0,.707-12.528,51.587,51.587,0,0,0,9.16-4.274c1.5-.866,2.952-1.8,4.394-2.747l.548-.367a2.025,2.025,0,0,0,.787-1.142A2.117,2.117,0,0,0,1322.22,867.167Z" transform="translate(-1143.392 -855.074)" fill="none" stroke="#124359" stroke-miterlimit="10" stroke-width="10.565"/>
        <path id="Caminho_125" data-name="Caminho 125" d="M1360.605,873.775l2.324,1.265c1.44.851,2.848,1.743,4.241,2.642a.911.911,0,0,0-.024-.143,5.626,5.626,0,0,0-1.1-2.188,7.789,7.789,0,0,0-1.981-1.592,15.058,15.058,0,0,0-5.125-1.591c-.653-.088-1.345-.167-2-.191l1.313.589C1359.07,872.908,1359.826,873.377,1360.605,873.775Z" transform="translate(-1260.441 -864.338)" fill="none"/>
        <path id="Caminho_126" data-name="Caminho 126" d="M1347.688,879.314a6.681,6.681,0,0,0,2.443.47c.454.016.836-.008,1.385-.016a7.464,7.464,0,0,1,1.6.143,3.876,3.876,0,0,1,1.631.732,2.921,2.921,0,0,1,.653.724,4.144,4.144,0,0,0,.358.477l1.918,1.186a4.882,4.882,0,0,0,2.387-.064,1.741,1.741,0,0,0,.931-.764c-1.766-1.146-3.549-2.26-5.363-3.318a63.716,63.716,0,0,0-8.816-4.177,2.861,2.861,0,0,0-.526.8,3.011,3.011,0,0,0-.032,2.188A2.786,2.786,0,0,0,1347.688,879.314Z" transform="translate(-1254.478 -865.834)" fill="none"/>
        <path id="Caminho_127" data-name="Caminho 127" d="M1153.719,967.833c.1.1.278.263.413.39a13.541,13.541,0,0,0,1.926,1.4,17.76,17.76,0,0,0,4.528,1.83c.191.056.39.1.589.143-.262-2.729-.542-5.458-.868-8.18a17.463,17.463,0,0,0-4.4,1.066,6.889,6.889,0,0,0-1.926,1.122,3.645,3.645,0,0,0-.35.342,1.6,1.6,0,0,0-.191.278,1.34,1.34,0,0,0-.135.661,1.433,1.433,0,0,0,.414.947Z" transform="translate(-1148.825 -914.457)" fill="none"/>
        <path id="Caminho_128" data-name="Caminho 128" d="M1166.207,929.093c.127,1.711.215,3.414.3,5.124.016,1.305.032,2.61.024,3.915a37.249,37.249,0,0,0,8.546.541,69.069,69.069,0,0,0,10.265-1.265,100.141,100.141,0,0,0,10.09-2.538,81.1,81.1,0,0,0,9.723-3.612,24.7,24.7,0,0,0,2.244-1.138l1.138-.692a12.4,12.4,0,0,1,1.313-.629,19.52,19.52,0,0,1,5.443-1.234,34.761,34.761,0,0,1,8.395.4c-.167-.39-.342-.788-.5-1.186-.3-.82-.6-1.647-.883-2.475-.294-.827-.557-1.655-.828-2.483-.247-.78-.485-1.544-.756-2.3a36.586,36.586,0,0,0-1.886-4.393,27.821,27.821,0,0,0-2.443-3.971,16.041,16.041,0,0,0-3.048-3.095,17.147,17.147,0,0,0-7.933-3.374,16.614,16.614,0,0,0-2.18-.175l-2.546-.048-5.141-.1q-10.277-.286-20.561-.987c-3.438-.254-6.867-.549-10.312-.955-1.106-.119-2.212-.271-3.318-.43.175.613.358,1.226.541,1.838.438,1.655.843,3.318,1.233,4.981.8,3.334,1.392,6.7,1.926,10.081C1165.538,922.282,1165.984,925.679,1166.207,929.093Z" transform="translate(-1153.237 -880.793)" fill="none"/>
        <path id="Caminho_129" data-name="Caminho 129" d="M1278.253,1107.434c-.231.31-.469.613-.732.907a11.759,11.759,0,0,1-3.072,2.427,17,17,0,0,1-7.384,2.013l-1.838.088q-.286.024-.549.071c.159.112.342.231.533.343a12.987,12.987,0,0,0,1.568.724,31.506,31.506,0,0,0,6.954,1.695,29.821,29.821,0,0,0,14.14-1.233,18.433,18.433,0,0,0,6.024-3.6,16.894,16.894,0,0,0,2.148-2.371A95.083,95.083,0,0,1,1278.253,1107.434Z" transform="translate(-1209.869 -993.393)" fill="none"/>
        <path id="Caminho_130" data-name="Caminho 130" d="M1324.949,872.082a.449.449,0,0,0-.326-.024l-.628.167-1.249.326a22.835,22.835,0,0,1-10.321.215,18.652,18.652,0,0,1-4.854-1.91,31.739,31.739,0,0,1-4.241-2.952c-.207-.159-.231-.167-.343-.183a.352.352,0,0,0-.27.112.329.329,0,0,0-.1.27.59.59,0,0,0,.048.159l.152.286c.389.756.772,1.528,1.138,2.308a40.514,40.514,0,0,1,1.9,4.806,19.4,19.4,0,0,1,.613,2.538,7.169,7.169,0,0,1-.016,2.7,14.471,14.471,0,0,1-1.894,4.87,8.981,8.981,0,0,1-4.13,3.263,16.459,16.459,0,0,1-5.108,1.106,42.239,42.239,0,0,1-10.265-.9,68.651,68.651,0,0,1-19.391-6.676c-.772-.382-1.5-.836-2.236-1.273s-1.48-.867-2.2-1.329c-1.424-.931-2.872-1.846-4.289-2.809-.422-.286-.844-.565-1.273-.851a3.548,3.548,0,0,1-.294.413,4.088,4.088,0,0,1-1.83,1.249,6.7,6.7,0,0,1-3.6.1,5.642,5.642,0,0,1-3.127-2,7.015,7.015,0,0,1-.509-.724l-.088-.151a1.015,1.015,0,0,0-.087-.1,1.677,1.677,0,0,0-.748-.366,5.1,5.1,0,0,0-1.154-.159l-.692-.008c-.262-.008-.525-.016-.78-.04a8.191,8.191,0,0,1-3.175-.772,4.514,4.514,0,0,1-2.236-2.665,4.834,4.834,0,0,1,.135-3.39l.183-.39.239-.366c0-.008.008-.008.008-.016a73.443,73.443,0,0,0-8.514-2.5l-5-1c-1.671-.3-3.366-.469-5.045-.708l-2.53-.334c-.852-.08-1.7-.127-2.546-.191l-5.093-.374c-3.4-.136-6.8-.183-10.2-.247-1.7.056-3.4.064-5.093.151-1.7.151-3.4.231-5.077.438a94.656,94.656,0,0,0-19.845,4.456,82.234,82.234,0,0,0-18.294,8.832c-.493.319-.366.255-.358.31a.024.024,0,0,1,.016.008l.143.032.31.072.621.127c.82.175,1.663.319,2.5.454,1.679.255,3.358.485,5.053.661,3.382.382,6.779.653,10.177.883,6.8.446,13.615.716,20.434.884l5.109.111,2.562.056a20.241,20.241,0,0,1,2.594.223,19.677,19.677,0,0,1,9.469,4.122,19.2,19.2,0,0,1,3.58,3.779,30.655,30.655,0,0,1,2.634,4.456,38.949,38.949,0,0,1,1.949,4.783c.565,1.631.979,3.294,1.48,4.909a57.942,57.942,0,0,0,3.66,9.461,18.685,18.685,0,0,0,1.289,2.148,7.272,7.272,0,0,0,1.64,1.766,1.308,1.308,0,0,0,1.822.056,3.985,3.985,0,0,0,.915-2.085l.788.151a4.475,4.475,0,0,1-.835,2.841,2.368,2.368,0,0,1-1.814.883,3.579,3.579,0,0,1-1.806-.509,8.823,8.823,0,0,1-2.292-1.99,16.22,16.22,0,0,1-1.647-2.244,33.707,33.707,0,0,1-2.3-4.281c-.414-.008-.82-.016-1.226-.016-.867-.016-1.727.039-2.578.039a34.974,34.974,0,0,0-5.045.462,18.667,18.667,0,0,0-4.615,1.257c-.35.159-.676.326-.995.509l-.453.294c-.2.136-.43.279-.637.406-.844.494-1.671.9-2.5,1.281a84.536,84.536,0,0,1-10.074,3.78,103.032,103.032,0,0,1-10.392,2.65,65.763,65.763,0,0,1-10.71,1.289,37.849,37.849,0,0,1-10.933-1.042,19.171,19.171,0,0,1-5.251-2.213,15.263,15.263,0,0,1-1.44-1.034c.27,1.194.581,2.387.939,3.557a52.418,52.418,0,0,0,2.7,7.138,50.518,50.518,0,0,0,3.724,6.62c.677,1.066,1.448,2.084,2.165,3.127.78.995,1.511,2.029,2.339,2.984a74.082,74.082,0,0,0,23.139,19.042,92.321,92.321,0,0,0,58.207,9.373,83.818,83.818,0,0,0,14.354-3.573c-.1-.4-.207-.788-.295-1.186a45.29,45.29,0,0,1-.724-4.814,62.368,62.368,0,0,1-.127-9.6,90.02,90.02,0,0,1,1.217-9.405q.419-2.328.947-4.615c.374-1.528.8-3.039,1.218-4.543a111.294,111.294,0,0,0-1.44,18.58,63.412,63.412,0,0,0,.732,9.214c.254,1.52.557,3.024.939,4.5.079.278.167.557.255.835.008,0,.016-.008.024-.008a12.868,12.868,0,0,0,2.132,4.862c-.008,0-.008.008-.016.008a25.145,25.145,0,0,0,1.528,2.34,26.424,26.424,0,0,0,3.008,3.318,23.445,23.445,0,0,0,7.591,4.623,32.9,32.9,0,0,0,8.8,1.862,18.15,18.15,0,0,0,8.57-1.385,2.266,2.266,0,0,0,1.265-2.562,2.3,2.3,0,0,0-.78-1.3,2.326,2.326,0,0,0-.684-.39c-.1-.048-.342-.127-.517-.2l-.581-.207a25.321,25.321,0,0,1-8.283-5.069,37.516,37.516,0,0,1-6.763-8.339l-2.411-4.5c-.469-.995-.923-1.989-1.329-3a96.049,96.049,0,0,1-5.2-18.1q-.43-2.3-.788-4.623l-.366-2.315-.191-1.146-.254-1.106a8.368,8.368,0,0,0-.867-2.077,4.666,4.666,0,0,0-1.6-1.528,5.408,5.408,0,0,0-4.448-.135,5.683,5.683,0,0,1,4.719-.4,5.243,5.243,0,0,1,2.005,1.6,9.285,9.285,0,0,1,1.194,2.228l.389,1.185.3,1.146.581,2.268c.39,1.512.787,3.008,1.217,4.5.812,2.984,1.687,5.944,2.721,8.824a85.517,85.517,0,0,0,3.414,8.467c.366.78.756,1.544,1.154,2.3a59.763,59.763,0,0,0,6.676-5.849,70.675,70.675,0,0,0,4.933-5.538c1.52-1.941,3.008-3.955,4.361-6.063a103.359,103.359,0,0,0,12.381-27.468,131.054,131.054,0,0,0,5.418-29.99l.653-.008c.024.692.048,1.377.056,2.069a55.166,55.166,0,0,0,8.458-4.48q2.149-1.373,4.225-2.849l.517-.366a.533.533,0,0,0,.2-.294A.6.6,0,0,0,1324.949,872.082Z" transform="translate(-1147.18 -858.634)" fill="none"/>
        <path id="Caminho_131" data-name="Caminho 131" d="M1321.879,867.136a2.1,2.1,0,0,0-1.488-.151l-.6.135-1.209.271a21.939,21.939,0,0,1-9.516,0,16.829,16.829,0,0,1-4.321-1.8,31.392,31.392,0,0,1-3.946-2.856l-.127-.1a2.908,2.908,0,0,0-.366-.247,2.515,2.515,0,0,0-1.01-.278,2.425,2.425,0,0,0-2.522,2.642,2.6,2.6,0,0,0,.278.907l.135.279c.382.748.74,1.5,1.082,2.244a38.519,38.519,0,0,1,1.766,4.552,16.613,16.613,0,0,1,.517,2.236,4.827,4.827,0,0,1,0,1.862,12.094,12.094,0,0,1-1.615,4.138c-1.488,2.22-4.44,3.127-7.551,3.318a40.317,40.317,0,0,1-9.668-.939c-1.615-.366-3.246-.684-4.854-1.161l-2.419-.661c-.8-.231-1.56-.525-2.339-.788l-2.339-.8-2.252-.987a48.623,48.623,0,0,1-4.424-2.188c-.732-.366-1.432-.819-2.148-1.241-.708-.437-1.416-.851-2.124-1.3-1.4-.931-2.8-1.83-4.209-2.809-.645-.437-1.3-.883-1.958-1.321.008-.223.016-.446.016-.66a10.442,10.442,0,0,0-.271-1.719,7.946,7.946,0,0,0-1.623-3.111,9.108,9.108,0,0,0-2.666-2.029,16.265,16.265,0,0,0-5.944-1.551,21.038,21.038,0,0,0-3.024-.1,8.547,8.547,0,0,0-2.26.47c-.183-.064-.358-.127-.541-.2l-2.49-.907-1.241-.446c-.422-.136-.851-.239-1.273-.366-1.695-.454-3.382-.987-5.092-1.369l-5.148-1.043c-1.719-.318-3.445-.493-5.172-.74l-2.586-.35c-.867-.088-1.727-.143-2.594-.207l-5.188-.4c-3.453-.151-6.9-.223-10.368-.295-1.751.048-3.5.056-5.252.143-1.743.143-3.493.215-5.236.43a97.377,97.377,0,0,0-20.505,4.528,85.153,85.153,0,0,0-19.049,9.127l-.279.183-.071.048a2.724,2.724,0,0,0-.278.207,3.261,3.261,0,0,0-.732.9,3.189,3.189,0,0,0,1.965,4.591l.223.048.342.087.677.143c.891.191,1.766.342,2.642.493l.684.1q.775,3.629,1.456,7.281c.6,3.35,1.178,6.7,1.679,10.065.413,2.729.779,5.467,1.13,8.212a19.959,19.959,0,0,0-5.061,1.1,9.533,9.533,0,0,0-2.658,1.488,5.949,5.949,0,0,0-.62.581,3.908,3.908,0,0,0-.581.82,4.119,4.119,0,0,0-.461,1.957,4.587,4.587,0,0,0,.064.581,51.807,51.807,0,0,0,1.09,7.583,52.675,52.675,0,0,0,5.912,14.864c.644,1.162,1.376,2.276,2.069,3.414.756,1.09,1.464,2.22,2.268,3.279a77.986,77.986,0,0,0,23.76,20.983,92.031,92.031,0,0,0,28.621,10.336,10.116,10.116,0,0,1-2.443,1.289c-.462.2-.979.334-1.456.494a14.338,14.338,0,0,1-1.544.3,12.566,12.566,0,0,1-1.568.207,12,12,0,0,1-1.607.064c-.279-.008-.541.016-.82.016l-1.026.032c-.223.016-.4.016-.653.056l-.35.048-.422.087a4.32,4.32,0,0,0-.5.159l-.27.1c-.127.064-.255.127-.382.2l-.183.112-.087.064-.128.1a3.256,3.256,0,0,0-.477.461,3.17,3.17,0,0,0-.469.756,2.761,2.761,0,0,0-.247.931,2.88,2.88,0,0,0,.031.891,3.863,3.863,0,0,0,.207.708,4.607,4.607,0,0,0,.231.438l.127.207.1.135a4.665,4.665,0,0,0,.764.8,7.53,7.53,0,0,0,1.17.772,14.461,14.461,0,0,0,2.029.923,33.073,33.073,0,0,0,7.782,1.83,37.844,37.844,0,0,0,7.886.032,27.611,27.611,0,0,0,7.718-2,20,20,0,0,0,6.6-4.56,17.419,17.419,0,0,0,2.968-4.241,93.392,93.392,0,0,0,9.874-1.1,89.99,89.99,0,0,0,15.318-4.05,26.335,26.335,0,0,0,13.814,12.572,35,35,0,0,0,4.838,1.464,31.73,31.73,0,0,0,5.029.772,24.72,24.72,0,0,0,5.244-.159,21.732,21.732,0,0,0,2.634-.541c.438-.127.875-.254,1.305-.414q.323-.107.644-.239l.319-.127c.1-.047.191-.079.366-.167a6.188,6.188,0,0,0,2.936-2.92,6.238,6.238,0,0,0-1.711-7.552,6.1,6.1,0,0,0-1.8-1l-1.106-.4a22.038,22.038,0,0,1-7.137-4.217,33.218,33.218,0,0,1-5.729-6.477c-.255-.374-.485-.756-.732-1.138a64.668,64.668,0,0,0,7.583-6.867l1.361-1.448,1.3-1.512c.438-.493.859-1.011,1.257-1.536l1.226-1.568c1.544-2.164,3.016-4.345,4.337-6.612a96.61,96.61,0,0,0,6.875-14.1,113.493,113.493,0,0,0,4.7-14.872,130.287,130.287,0,0,0,2.61-15.309,104.251,104.251,0,0,0,.708-12.5,51.4,51.4,0,0,0,9.143-4.265c1.5-.868,2.944-1.79,4.384-2.745l.549-.366a1.986,1.986,0,0,0,.788-1.138A2.124,2.124,0,0,0,1321.879,867.136Zm-86.1-2.506a2.874,2.874,0,0,1,.525-.8h.008c1.424-1.361,5.506-1.13,6.167-1.042a14.956,14.956,0,0,1,5.116,1.591,7.772,7.772,0,0,1,1.981,1.592,5.58,5.58,0,0,1,1.1,2.188,4.542,4.542,0,0,1-.239,3.246,1.748,1.748,0,0,1-.883.685,4.855,4.855,0,0,1-2.379.064,3.4,3.4,0,0,1-1.917-1.186,3.662,3.662,0,0,1-.366-.485,3.023,3.023,0,0,0-.645-.724,3.982,3.982,0,0,0-1.639-.724,6.925,6.925,0,0,0-1.6-.143c-.541.008-.923.032-1.385.016a6.539,6.539,0,0,1-2.443-.477,2.775,2.775,0,0,1-1.432-1.607A3.051,3.051,0,0,1,1235.775,864.63ZM1153.284,883.1c-.39-1.663-.8-3.326-1.233-4.981-.183-.613-.366-1.226-.541-1.838,1.106.159,2.212.31,3.318.43,3.445.406,6.875.7,10.312.955q10.288.716,20.561.986l5.14.1,2.546.048a16.593,16.593,0,0,1,2.18.175,17.148,17.148,0,0,1,7.933,3.374,16.039,16.039,0,0,1,3.048,3.1,27.832,27.832,0,0,1,2.443,3.971,36.611,36.611,0,0,1,1.886,4.393c.271.755.509,1.52.756,2.3.271.828.533,1.655.827,2.483.278.827.581,1.655.884,2.475.159.4.334.8.5,1.186a34.754,34.754,0,0,0-8.395-.4,19.521,19.521,0,0,0-5.443,1.234,12.41,12.41,0,0,0-1.313.629l-1.138.692a24.666,24.666,0,0,1-2.244,1.138,81.129,81.129,0,0,1-9.723,3.612,100.147,100.147,0,0,1-10.089,2.538,69.072,69.072,0,0,1-10.265,1.265,37.252,37.252,0,0,1-8.546-.541c.008-1.3-.008-2.61-.024-3.915-.087-1.711-.175-3.414-.3-5.124-.223-3.414-.668-6.811-1.154-10.193C1154.677,889.8,1154.08,886.432,1153.284,883.1Zm-5.276,23.744a1.6,1.6,0,0,1,.191-.278,3.662,3.662,0,0,1,.35-.342,6.892,6.892,0,0,1,1.926-1.122,18.145,18.145,0,0,1,2.865-.867l1.814,7.838a17.762,17.762,0,0,1-4.527-1.83,13.542,13.542,0,0,1-1.926-1.4c-.135-.127-.318-.286-.413-.39a1.433,1.433,0,0,1-.414-.947A1.34,1.34,0,0,1,1148.008,906.842Zm79.412,65.71a18.434,18.434,0,0,1-6.024,3.6,29.823,29.823,0,0,1-14.14,1.233,31.509,31.509,0,0,1-6.954-1.695,12.959,12.959,0,0,1-1.568-.724c-.191-.112-.374-.231-.533-.343q.263-.048.549-.071l1.839-.088a17.005,17.005,0,0,0,7.384-2.013,11.756,11.756,0,0,0,3.071-2.427c.263-.295.5-.6.732-.907a95.078,95.078,0,0,0,17.792,1.067A16.874,16.874,0,0,1,1227.421,972.552Zm94.013-103.386a.533.533,0,0,1-.2.294l-.517.366q-2.077,1.48-4.225,2.849a55.16,55.16,0,0,1-8.458,4.48c-.008-.692.016,0-.008-.692l-.824.383a116.533,116.533,0,0,1-5.295,28.239,103.359,103.359,0,0,1-12.381,27.468c-1.353,2.109-2.84,4.122-4.361,6.063a70.777,70.777,0,0,1-4.933,5.538,59.784,59.784,0,0,1-6.676,5.848c-.4-.756-.788-1.52-1.154-2.3a85.451,85.451,0,0,1-3.414-8.467c-1.035-2.88-1.91-5.84-2.721-8.824-.43-1.488-.827-2.984-1.217-4.5l-.581-2.268-.3-1.146-.39-1.185a9.272,9.272,0,0,0-1.194-2.228,5.242,5.242,0,0,0-2.005-1.6,5.683,5.683,0,0,0-4.719.4,5.407,5.407,0,0,1,4.448.135,4.665,4.665,0,0,1,1.6,1.528,8.372,8.372,0,0,1,.867,2.077l.254,1.106.191,1.146.366,2.315q.358,2.316.788,4.623a96.081,96.081,0,0,0,5.2,18.1c.406,1.01.859,2.005,1.329,3l2.411,4.5a37.51,37.51,0,0,0,6.763,8.339,25.321,25.321,0,0,0,8.283,5.069l.581.206c.175.072.422.151.517.2a2.28,2.28,0,0,1,1.464,1.687,2.266,2.266,0,0,1-1.265,2.562,18.15,18.15,0,0,1-8.57,1.385,32.9,32.9,0,0,1-8.8-1.862,23.443,23.443,0,0,1-7.591-4.623,26.443,26.443,0,0,1-3.008-3.318,25.168,25.168,0,0,1-1.528-2.339c.008,0,.008-.008.016-.008a12.867,12.867,0,0,1-2.133-4.862c-.008,0-.016.008-.024.008-.088-.279-.175-.557-.255-.836-.382-1.48-.684-2.984-.939-4.5a63.413,63.413,0,0,1-.732-9.214,111.308,111.308,0,0,1,1.44-18.58c-.422,1.5-.844,3.016-1.217,4.543q-.525,2.292-.947,4.615a90.028,90.028,0,0,0-1.217,9.405,62.4,62.4,0,0,0,.128,9.6,45.257,45.257,0,0,0,.724,4.814c.088.4.191.788.295,1.186a83.81,83.81,0,0,1-14.354,3.573,92.32,92.32,0,0,1-58.207-9.373,74.084,74.084,0,0,1-23.139-19.042c-.828-.955-1.559-1.989-2.339-2.984-.716-1.043-1.488-2.061-2.165-3.127a50.5,50.5,0,0,1-3.724-6.62,52.435,52.435,0,0,1-2.7-7.138c-.358-1.169-.669-2.363-.939-3.557a15.287,15.287,0,0,0,1.44,1.034,19.172,19.172,0,0,0,5.251,2.212,37.85,37.85,0,0,0,10.933,1.042,65.773,65.773,0,0,0,10.71-1.289,103.026,103.026,0,0,0,10.392-2.65,84.53,84.53,0,0,0,10.074-3.78c.827-.382,1.655-.788,2.5-1.281.207-.127.437-.27.637-.406l.453-.294c.319-.183.645-.35.995-.509a18.668,18.668,0,0,1,4.615-1.257,34.981,34.981,0,0,1,5.045-.462c.851,0,1.711-.056,2.578-.039.406,0,.812.008,1.226.016a33.722,33.722,0,0,0,2.3,4.281,16.212,16.212,0,0,0,1.647,2.244,8.822,8.822,0,0,0,2.292,1.99,3.578,3.578,0,0,0,1.806.509,2.368,2.368,0,0,0,1.814-.883,4.475,4.475,0,0,0,.836-2.841l-.788-.151a3.984,3.984,0,0,1-.915,2.085,1.308,1.308,0,0,1-1.822-.056,7.268,7.268,0,0,1-1.64-1.767,18.657,18.657,0,0,1-1.289-2.148,57.926,57.926,0,0,1-3.66-9.461c-.5-1.615-.915-3.279-1.48-4.909a38.926,38.926,0,0,0-1.95-4.782,30.611,30.611,0,0,0-2.634-4.456,19.2,19.2,0,0,0-3.58-3.779,19.674,19.674,0,0,0-9.469-4.122,20.215,20.215,0,0,0-2.594-.223l-2.562-.056-5.109-.111c-6.819-.167-13.63-.438-20.434-.883-3.4-.23-6.8-.5-10.177-.883-1.7-.175-3.374-.406-5.053-.661-.835-.135-1.679-.278-2.5-.454l-.621-.127-.311-.072-.143-.032a.024.024,0,0,0-.016-.008c-.008-.056-.135.008.358-.31a82.237,82.237,0,0,1,18.294-8.832,94.675,94.675,0,0,1,19.845-4.456c1.679-.207,3.382-.286,5.077-.438,1.695-.087,3.39-.1,5.093-.151,3.4.064,6.8.111,10.2.247l5.093.374c.851.064,1.695.112,2.546.191l2.53.334c1.679.239,3.374.406,5.045.708l5,1a73.412,73.412,0,0,1,8.514,2.5c0,.008-.008.008-.008.016l-.239.366-.183.39a4.834,4.834,0,0,0-.135,3.39,4.513,4.513,0,0,0,2.236,2.665,8.193,8.193,0,0,0,3.175.772c.254.024.517.032.78.04l.692.008a5.109,5.109,0,0,1,1.154.159,1.679,1.679,0,0,1,.748.366,1.043,1.043,0,0,1,.087.1l.088.151a6.992,6.992,0,0,0,.509.724,5.641,5.641,0,0,0,3.127,2,6.7,6.7,0,0,0,3.6-.1,4.089,4.089,0,0,0,1.83-1.249,3.546,3.546,0,0,0,.294-.414c.43.287.851.565,1.273.851,1.416.963,2.865,1.878,4.289,2.809.724.462,1.472.883,2.2,1.329s1.464.891,2.236,1.273a68.651,68.651,0,0,0,19.391,6.676,42.243,42.243,0,0,0,10.265.9,16.458,16.458,0,0,0,5.108-1.106,8.98,8.98,0,0,0,4.13-3.263,14.467,14.467,0,0,0,1.894-4.87,7.167,7.167,0,0,0,.016-2.7,19.4,19.4,0,0,0-.613-2.538,40.495,40.495,0,0,0-1.9-4.806c-.366-.78-.748-1.552-1.138-2.308l-.151-.286a.581.581,0,0,1-.048-.159.329.329,0,0,1,.1-.27.352.352,0,0,1,.27-.112c.112.016.135.024.343.183a31.746,31.746,0,0,0,4.241,2.952,18.645,18.645,0,0,0,4.854,1.91,22.834,22.834,0,0,0,10.32-.215l1.249-.326.629-.167a.449.449,0,0,1,.326.024A.6.6,0,0,1,1321.434,869.165Z" transform="translate(-1143.393 -855.073)" fill="#124359"/>
        <path id="Caminho_132" data-name="Caminho 132" d="M1362.456,877.423a5.483,5.483,0,0,0-1.1-2.188,7.639,7.639,0,0,0-1.977-1.6,15.05,15.05,0,0,0-5.124-1.591c-.653-.09-4.741-.315-6.167,1.04h0a2.782,2.782,0,0,0-.525.809,3.015,3.015,0,0,0-.036,2.186,2.805,2.805,0,0,0,1.433,1.61,6.6,6.6,0,0,0,2.441.473c.459.019.842,0,1.39-.018a7.368,7.368,0,0,1,1.6.147,3.911,3.911,0,0,1,1.638.726,2.915,2.915,0,0,1,.645.724,4.518,4.518,0,0,0,.363.484,3.4,3.4,0,0,0,1.919,1.179,4.877,4.877,0,0,0,2.383-.06,1.746,1.746,0,0,0,.883-.687A4.558,4.558,0,0,0,1362.456,877.423Z" transform="translate(-1255.176 -864.338)" fill="#728c9a"/>
        <path id="Caminho_133" data-name="Caminho 133" d="M1347.334,903.429a14.1,14.1,0,0,0-3.237-3.079,14.8,14.8,0,0,0-4.033-1.918,14.381,14.381,0,0,0-4.416-.5,13.682,13.682,0,0,0-4.331.881,12.557,12.557,0,0,0-3.8,2.2,14.088,14.088,0,0,0-2.89,3.244,13.459,13.459,0,0,0-1.679,3.96,13.679,13.679,0,0,0-.342,4.227,12.859,12.859,0,0,0,1.042,4.041,12.294,12.294,0,0,0,4.81,5.593,14.631,14.631,0,0,0-3.079,2.575,23.17,23.17,0,0,1,4.905-1.865,24.833,24.833,0,0,1,6.568-.733,16.639,16.639,0,0,1,5.887.681c1.856.664,3.3.783,5.038,1.917a14.2,14.2,0,0,0-3.383-3.05,11.106,11.106,0,0,0,4.789-5.512,13.63,13.63,0,0,0,.653-2.1,12.94,12.94,0,0,0,.245-2.2,13.068,13.068,0,0,0-2.751-8.358Zm-.754,11.857a11.2,11.2,0,0,1-3.735,5.43,14.714,14.714,0,0,0-3.006-1.019,15.543,15.543,0,0,0-3.223-.279,15.754,15.754,0,0,0-6.185,1.546c-.247.117-.482.255-.723.383l.089-.131a11.08,11.08,0,0,1-4.443-12.3,11.668,11.668,0,0,1,1.486-3.148,11.352,11.352,0,0,1,2.4-2.524,10.359,10.359,0,0,1,3.057-1.662,10.694,10.694,0,0,1,3.423-.629,11.4,11.4,0,0,1,3.452.456,11.69,11.69,0,0,1,3.134,1.515,11.114,11.114,0,0,1,4.275,12.362Z" transform="translate(-1241.605 -878.558)" fill="#124359"/>
        <g id="Caminho_134" data-name="Caminho 134" transform="translate(-1243.797 -882.704)" fill="#124359" stroke-miterlimit="10">
          <path d="M 1332.932006835938 922.94775390625 C 1331.016479492188 922.9476928710938 1329.256225585938 921.9718017578125 1327.975341796875 920.1998291015625 C 1326.78076171875 918.548095703125 1326.128173828125 916.3648681640625 1326.137573242188 914.0524291992188 C 1326.146606445313 911.7394409179688 1326.81591796875 909.5460815429688 1328.022216796875 907.8765258789063 C 1329.3203125 906.078125 1331.102172851563 905.0726318359375 1333.039306640625 905.0455322265625 L 1333.091186523438 905.0452880859375 C 1335.005615234375 905.0452880859375 1336.765502929688 906.021240234375 1338.046630859375 907.7932739257813 C 1339.241088867188 909.4443969726563 1339.893798828125 911.62744140625 1339.884399414063 913.9402465820313 C 1339.875122070313 916.2644653320313 1339.212158203125 918.4575805664063 1338.017578125 920.115478515625 C 1336.802368164063 921.80224609375 1335.138793945313 922.8026733398438 1333.33349609375 922.9324340820313 C 1333.228637695313 922.9403686523438 1333.11376953125 922.9453125 1332.984008789063 922.9474487304688 L 1332.932006835938 922.94775390625 Z M 1333.437622070313 907.1849365234375 C 1332.385009765625 907.1849365234375 1331.30859375 907.7689819335938 1330.40673828125 908.8294067382813 C 1329.33837890625 910.0875854492188 1328.658203125 911.8256225585938 1328.49169921875 913.7230224609375 C 1328.325561523438 915.617919921875 1328.693359375 917.4178466796875 1329.527587890625 918.7911376953125 C 1330.273559570313 920.01806640625 1331.294555664063 920.7320556640625 1332.402221679688 920.8013305664063 C 1332.46533203125 920.8055419921875 1332.527587890625 920.8076171875 1332.589111328125 920.8076171875 C 1334.955444335938 920.8076171875 1337.21826171875 917.8137817382813 1337.5302734375 914.27001953125 C 1337.696411132813 912.3748779296875 1337.32861328125 910.5748291015625 1336.494384765625 909.2015380859375 C 1335.748413085938 907.974609375 1334.7275390625 907.2606201171875 1333.619873046875 907.1913452148438 C 1333.558837890625 907.18701171875 1333.498901367188 907.1849365234375 1333.437622070313 907.1849365234375 Z" stroke="none"/>
          <path d="M 1333.091186523438 905.4855346679688 C 1333.075927734375 905.4855346679688 1333.060668945313 905.485595703125 1333.04541015625 905.4857177734375 C 1331.265258789063 905.5106201171875 1329.6005859375 906.4420166015625 1328.379028320313 908.1343383789063 C 1327.225830078125 909.7304077148438 1326.58642578125 911.8331298828125 1326.577758789063 914.05419921875 C 1326.568725585938 916.2743530273438 1327.191528320313 918.3648071289063 1328.33203125 919.9419555664063 C 1329.529296875 921.5982055664063 1331.162353515625 922.5075073242188 1332.932006835938 922.5075073242188 C 1332.946899414063 922.5075073242188 1332.961791992188 922.5074462890625 1332.976684570313 922.50732421875 C 1333.08642578125 922.5054931640625 1333.194458007813 922.50146484375 1333.301879882813 922.4933471679688 C 1336.753540039063 922.2452392578125 1339.425659179688 918.56591796875 1339.444213867188 913.9384765625 C 1339.453247070313 911.71875 1338.83056640625 909.6278686523438 1337.68994140625 908.0512084960938 C 1336.492431640625 906.394775390625 1334.860107421875 905.4855346679688 1333.091186523438 905.4855346679688 M 1332.589111328125 921.247802734375 C 1332.517700195313 921.247802734375 1332.446411132813 921.2454223632813 1332.374755859375 921.2406616210938 C 1331.118896484375 921.162109375 1329.974243164063 920.373046875 1329.1513671875 919.0196533203125 C 1328.268798828125 917.5667724609375 1327.878784179688 915.6729125976563 1328.05322265625 913.6845703125 C 1328.227661132813 911.6957397460938 1328.94482421875 909.8709106445313 1330.071411132813 908.544189453125 C 1331.063720703125 907.3773803710938 1332.250854492188 906.7447509765625 1333.437622070313 906.7447509765625 C 1333.507202148438 906.7447509765625 1333.577270507813 906.7470092773438 1333.647338867188 906.7520141601563 C 1334.903076171875 906.83056640625 1336.047729492188 907.6195678710938 1336.87060546875 908.9730224609375 C 1337.753173828125 910.4259033203125 1338.143188476563 912.3197631835938 1337.96875 914.3086547851563 C 1337.63232421875 918.1292724609375 1335.177734375 921.247802734375 1332.589111328125 921.247802734375 M 1333.091186523438 904.6051025390625 C 1335.150634765625 904.6051025390625 1337.037231445313 905.645751953125 1338.403442382813 907.535400390625 C 1339.652099609375 909.2613525390625 1340.334350585938 911.5366821289063 1340.324584960938 913.9420776367188 C 1340.31494140625 916.3572387695313 1339.622436523438 918.6410522460938 1338.374755859375 920.372802734375 C 1337.081909179688 922.167236328125 1335.302734375 923.232177734375 1333.364990234375 923.3715209960938 C 1333.253295898438 923.3799438476563 1333.130126953125 923.3853149414063 1332.991455078125 923.3876342773438 L 1332.987915039063 923.3876953125 L 1332.984375 923.3876953125 L 1332.932006835938 923.387939453125 C 1330.871459960938 923.387939453125 1328.984497070313 922.3472900390625 1327.618530273438 920.457763671875 C 1326.369873046875 918.7310791015625 1325.687622070313 916.45556640625 1325.697387695313 914.0505981445313 C 1325.706787109375 911.646484375 1326.405639648438 909.3622436523438 1327.665405273438 907.6187133789063 C 1329.046997070313 905.7047729492188 1330.953369140625 904.6344604492188 1333.033081054688 904.6054077148438 L 1333.091186523438 904.6051025390625 Z M 1332.589111328125 920.367431640625 C 1333.553588867188 920.367431640625 1334.588623046875 919.7487182617188 1335.428955078125 918.6699829101563 C 1336.353759765625 917.4827270507813 1336.944213867188 915.9064331054688 1337.091674804688 914.2314453125 C 1337.249755859375 912.4291381835938 1336.904052734375 910.723876953125 1336.1181640625 909.4301147460938 C 1335.44921875 908.3298950195313 1334.552124023438 907.6907348632813 1333.592407226563 907.6307373046875 L 1333.588500976563 907.6304931640625 L 1333.584594726563 907.6301879882813 C 1333.537841796875 907.6268310546875 1333.488403320313 907.6251831054688 1333.437622070313 907.6251831054688 C 1332.516235351563 907.6251831054688 1331.558837890625 908.1541137695313 1330.742065429688 909.1145629882813 C 1329.732421875 910.3036499023438 1329.088745117188 911.9541015625 1328.930297851563 913.761474609375 C 1328.772216796875 915.563720703125 1329.117919921875 917.268798828125 1329.90380859375 918.5625610351563 C 1330.57275390625 919.6627807617188 1331.469848632813 920.3019409179688 1332.4296875 920.3619384765625 C 1332.485107421875 920.3656616210938 1332.537353515625 920.367431640625 1332.589111328125 920.367431640625 Z" stroke="none" fill="#124359"/>
        </g>
        <path id="Caminho_135" data-name="Caminho 135" d="M1282.034,877.928a3.21,3.21,0,0,1-.94.238,15.836,15.836,0,0,1-2.08.077,8.86,8.86,0,0,1-1.995-.2,2.272,2.272,0,0,1-1.61-1.156,1.562,1.562,0,0,0,.125,1.3,2.761,2.761,0,0,0,.958.993,4.822,4.822,0,0,0,2.5.656,5.8,5.8,0,0,0,2.48-.481,2.882,2.882,0,0,0,1.077-.847,1.346,1.346,0,0,0,.236-1.292A1.392,1.392,0,0,1,1282.034,877.928Z" transform="translate(-1215.701 -867.029)" fill="#124359" stroke="#124359" stroke-miterlimit="10" stroke-width="1.761"/>
      </g>
      <ellipse id="highlight" cx="1.973" cy="3.08" rx="1.973" ry="3.08" transform="translate(91 23.073)" fill="#fff" opacity="0.75"/>
    </g>
  </g>
</svg>
