<?xml version="1.0" encoding="utf-8"?>
<!-- Generator: Adobe Illustrator 23.1.0, SVG Export Plug-In . SVG Version: 6.00 Build 0)  -->
<svg version="1.1" id="Camada_1" xmlns="http://www.w3.org/2000/svg" xmlns:xlink="http://www.w3.org/1999/xlink" x="0px" y="0px"
	 viewBox="0 0 10112.5 400.7" style="enable-background:new 0 0 10112.5 400.7;" xml:space="preserve">
<style type="text/css">
	.bottom-wave{fill:#03A1CD;}
</style>
<path class="bottom-wave"  d="M10112.5,163.9c-12.7-10.2-25.1-20.9-37.1-32l-4.7-4.2c-6.7-6.1-13.6-12.4-21.1-18.3
	c-14.6-11.3-29.8-21.7-45.5-31c-63.1-37.1-133.4-56.5-204.8-56.5c-71.4,0-141.7,19.4-204.7,56.4c-15.8,9.3-31,19.7-45.7,31.1
	c-8.3,6.5-16.3,13.3-25.9,22.1c-135.2,124-305.3,191.9-481,192.2c-113.9,0-223.3-27.4-325.2-81.4c-55.8-29.6-108-66.6-155.6-110.3
	l-4.6-4.2c-6.7-6.1-13.6-12.4-21.1-18.3c-14.6-11.4-29.8-21.7-45.5-31c-63.1-37.1-133.4-56.5-204.8-56.5
	c-71.4,0-141.7,19.4-204.7,56.4c-15.8,9.3-31,19.7-45.7,31.1c-8.3,6.4-16.3,13.2-25.9,22.1c-133.2,122.1-300.2,189.9-473.1,192.1
	v-0.1c-3.4,0.1-6.8,0.1-10.2,0.1c-3.4,0-6.8-0.1-10.2-0.1v0.1c-172.9-2.3-339.9-70-473.1-192.1c-9.7-8.8-17.6-15.6-25.9-22.1
	c-14.6-11.4-29.9-21.8-45.7-31.1c-63-37-133.3-56.4-204.7-56.4c-71.4,0-141.8,19.4-204.8,56.5c-15.7,9.3-30.9,19.6-45.5,31
	c-7.6,5.9-14.4,12.2-21.1,18.3l-4.6,4.2c-47.6,43.7-99.8,80.7-155.6,110.3c-101.9,54-211.3,81.4-325.2,81.4
	c-175.7-0.2-345.8-68.2-481-192.2c-9.6-8.8-17.6-15.6-25.9-22.1c-14.6-11.4-29.9-21.8-45.7-31.1c-63-37-133.3-56.4-204.7-56.4
	c-71.4,0-141.8,19.4-204.8,56.5c-15.7,9.3-30.9,19.6-45.5,31c-7.6,5.9-14.5,12.2-21.1,18.3l-4.7,4.2
	c-47.6,43.7-99.8,80.7-155.6,110.3c-98.8,52.4-204.7,79.6-314.9,81.2c-110.2-1.6-216.1-28.8-314.9-81.2
	c-55.8-29.6-108-66.6-155.6-110.3l-4.7-4.2c-6.7-6.1-13.6-12.4-21.1-18.3c-14.6-11.3-29.8-21.7-45.5-31
	c-63.1-37.1-133.4-56.5-204.8-56.5c-71.4,0-141.7,19.4-204.7,56.4c-15.8,9.3-31,19.7-45.7,31.1c-8.3,6.5-16.3,13.3-25.9,22.1
	c-135.2,124-305.3,191.9-481,192.2c-113.9,0-223.3-27.4-325.2-81.4c-55.8-29.6-108-66.6-155.6-110.3l-4.6-4.2
	c-6.7-6.1-13.6-12.4-21.1-18.3c-14.6-11.4-29.8-21.7-45.5-31c-63.1-37.1-133.4-56.5-204.8-56.5c-71.4,0-141.7,19.4-204.7,56.4
	c-15.8,9.3-31,19.7-45.7,31.1c-8.3,6.4-16.3,13.2-25.9,22.1C1835,253.5,1668,321.3,1495.1,323.6v-0.1c-3.4,0.1-6.8,0.1-10.2,0.1
	c-3.4,0-6.8-0.1-10.2-0.1v0.1c-172.9-2.3-339.9-70-473.1-192.1c-9.7-8.8-17.7-15.6-25.9-22.1C961,98,945.8,87.6,930,78.3
	c-63-37-133.3-56.4-204.7-56.4c-71.4,0-141.8,19.4-204.8,56.5c-15.7,9.3-30.9,19.6-45.5,31c-7.6,5.9-14.4,12.2-21.1,18.3l-4.6,4.2
	c-47.6,43.7-99.8,80.7-155.6,110.3c-92.4,49-191,76.1-293.6,80.7v73.6c112.6-4.6,220.9-34.2,322.4-87.9
	c60.6-32.2,117.5-72.4,169.2-119.9l4.7-4.3c5.9-5.4,11.6-10.6,17-14.8c12.4-9.6,25.2-18.4,38.6-26.3c53.4-31.4,113-47.8,173.5-47.8
	c60.5,0,120,16.4,173.4,47.7c13.4,7.9,26.3,16.7,38.7,26.3c6.9,5.4,13.5,11,21.8,18.6c147.2,134.9,332.4,208.9,523.6,209.1
	c0.7,0,1.4,0,2.1,0c0.7,0,1.4,0,2.1,0c191.3-0.2,376.4-74.2,523.6-209.1c8.3-7.6,14.9-13.2,21.8-18.6c12.4-9.6,25.3-18.4,38.7-26.3
	c53.4-31.4,112.9-47.7,173.4-47.7c60.5,0,120.1,16.4,173.5,47.8c13.3,7.9,26.2,16.6,38.6,26.3c5.4,4.2,11,9.4,17,14.8l4.7,4.3
	c51.7,47.5,108.6,87.8,169.2,119.9c110.9,58.8,230,88.6,353.9,88.6c191.2-0.2,376.3-74.2,523.4-209.1c8.3-7.6,14.9-13.2,21.8-18.6
	c12.4-9.6,25.3-18.4,38.7-26.3c53.4-31.4,112.9-47.7,173.4-47.7c60.5,0,120.1,16.4,173.5,47.8c13.3,7.9,26.2,16.6,38.6,26.3
	c5.4,4.2,11,9.4,17,14.8l4.7,4.3c51.7,47.5,108.6,87.8,169.2,119.9c107.3,56.9,222.3,86.5,341.8,88.4v0.1c0.6,0,1.2,0,1.8,0
	c0.6,0,1.2,0,1.8,0v-0.1c119.6-1.9,234.5-31.5,341.8-88.4c60.6-32.2,117.5-72.4,169.2-119.9l4.7-4.3c5.9-5.4,11.5-10.6,17-14.8
	c12.4-9.6,25.2-18.4,38.6-26.3c53.4-31.4,113-47.8,173.5-47.8c60.5,0,120,16.4,173.4,47.7c13.4,7.9,26.3,16.7,38.7,26.3
	c6.9,5.4,13.5,11,21.8,18.6c147.1,134.9,332.2,208.8,523.4,209.1c123.9,0,243-29.8,353.9-88.6c60.6-32.2,117.5-72.4,169.2-119.9
	l4.7-4.3c5.9-5.4,11.6-10.6,17-14.8c12.4-9.6,25.2-18.4,38.6-26.3c53.4-31.4,113-47.8,173.5-47.8c60.5,0,120,16.4,173.4,47.7
	c13.4,7.9,26.3,16.7,38.7,26.3c6.9,5.4,13.5,11,21.8,18.6c147.2,134.9,332.4,208.9,523.6,209.1c0.7,0,1.4,0,2.1,0c0.7,0,1.4,0,2.1,0
	c191.3-0.2,376.4-74.2,523.6-209.1c8.3-7.6,14.9-13.2,21.8-18.6c12.4-9.6,25.3-18.4,38.7-26.3c53.4-31.4,112.9-47.7,173.4-47.7
	c60.5,0,120.1,16.4,173.5,47.8c13.3,7.9,26.2,16.6,38.6,26.3c5.4,4.2,11,9.4,17,14.8l4.7,4.3c51.7,47.5,108.6,87.8,169.2,119.9
	c110.9,58.8,230,88.6,353.9,88.6c191.2-0.2,376.3-74.2,523.4-209.1c8.3-7.6,14.9-13.2,21.8-18.6c12.4-9.6,25.3-18.4,38.7-26.3
	c53.4-31.4,112.9-47.7,173.4-47.7c60.5,0,120.1,16.4,173.5,47.8c13.3,7.9,26.2,16.6,38.6,26.3c5.4,4.2,11,9.4,17,14.8l4.8,4.3
	c25.3,23.3,51.9,44.8,79.5,64.5V163.9z"/>
</svg>
