<svg xmlns="http://www.w3.org/2000/svg" xmlns:xlink="http://www.w3.org/1999/xlink" width="449.722" height="359.631" viewBox="0 0 449.722 359.631">
  <defs>
    <linearGradient id="linear-gradient" y1="0.5" x2="1" y2="0.5" gradientUnits="objectBoundingBox">
      <stop offset="0" stop-color="#166d9c"/>
      <stop offset="0.293" stop-color="#197bac"/>
      <stop offset="0.863" stop-color="#24a0d5"/>
      <stop offset="1" stop-color="#27aae1"/>
    </linearGradient>
    <linearGradient id="linear-gradient-2" x1="-0.03" y1="0.533" x2="0.647" y2="0.404" gradientUnits="objectBoundingBox">
      <stop offset="0" stop-color="#166e9d"/>
      <stop offset="0.122" stop-color="#1b82b3"/>
      <stop offset="0.273" stop-color="#2093c7"/>
      <stop offset="0.445" stop-color="#24a0d6"/>
      <stop offset="0.653" stop-color="#26a7de"/>
      <stop offset="1" stop-color="#27aae1"/>
    </linearGradient>
    <linearGradient id="linear-gradient-3" x1="0.518" y1="1.729" x2="0.493" y2="-0.11" xlink:href="#linear-gradient"/>
    <linearGradient id="linear-gradient-4" x1="0.015" y1="0.625" x2="0.74" y2="0.428" gradientUnits="objectBoundingBox">
      <stop offset="0" stop-color="#166d9c"/>
      <stop offset="0.23" stop-color="#1875a6"/>
      <stop offset="0.622" stop-color="#1f8dc0"/>
      <stop offset="1" stop-color="#27aae1"/>
    </linearGradient>
    <linearGradient id="linear-gradient-5" x1="0.28" y1="0.274" x2="0.685" y2="0.62" gradientUnits="objectBoundingBox">
      <stop offset="0" stop-color="#166d9c"/>
      <stop offset="0.234" stop-color="#1876a6"/>
      <stop offset="0.638" stop-color="#1f8fc2"/>
      <stop offset="1" stop-color="#27aae1"/>
    </linearGradient>
    <linearGradient id="linear-gradient-6" x1="1.105" y1="0.299" x2="-1.598" y2="1.222" gradientUnits="objectBoundingBox">
      <stop offset="0" stop-color="#166d9c"/>
      <stop offset="0.089" stop-color="#1771a0"/>
      <stop offset="0.193" stop-color="#1a7eaf"/>
      <stop offset="0.305" stop-color="#2092c6"/>
      <stop offset="0.4" stop-color="#27aae1"/>
    </linearGradient>
    <linearGradient id="linear-gradient-7" x1="0.497" y1="-1.12" x2="0.503" y2="2.04" gradientUnits="objectBoundingBox">
      <stop offset="0.096" stop-color="#27aae1"/>
      <stop offset="0.204" stop-color="#30ade2"/>
      <stop offset="0.381" stop-color="#48b6e5"/>
      <stop offset="0.606" stop-color="#71c4ea"/>
      <stop offset="0.866" stop-color="#a8d7f1"/>
      <stop offset="1" stop-color="#c8e3f6"/>
    </linearGradient>
  </defs>
  <g id="Celeste" transform="translate(7.385 12.588)">
    <g id="Grupo_37" data-name="Grupo 37">
      <g id="outline">
        <path id="Caminho_69" data-name="Caminho 69" d="M281.331,277.649c-.117.868-.217,1.728-.309,2.6-.167,1.719-.267,3.447-.317,5.174a65.921,65.921,0,0,0,.576,10.406,47.142,47.142,0,0,0,7.226,19.9,39.839,39.839,0,0,0,7.268,8.078,41.165,41.165,0,0,0,9.137,5.775,58.035,58.035,0,0,0,16.114,4.581c-.209,1.393-.392,2.77-.576,4.172q-.513,4.143-.868,8.3-.713,8.3-.834,16.623a223.54,223.54,0,0,0,1.994,33.228c2.937,22.013,9.271,43.768,19.86,63.495a160.727,160.727,0,0,0,8.7,14.336,143.5,143.5,0,0,0,10.3,13.243A150.3,150.3,0,0,0,384.3,510.115c16.84,12.275,36.041,20.8,55.8,26.428q-1.277,2.015-2.6,3.98a125.269,125.269,0,0,1-10.99,14.2,109.423,109.423,0,0,1-12.893,12.225,97.469,97.469,0,0,1-14.737,9.671,94.5,94.5,0,0,1-16.205,6.926c-1.394.476-2.829.835-4.239,1.26l-1.06.309-.818.25a8.9,8.9,0,0,0-5.157,4.255,8.871,8.871,0,0,0-.451,7.8l.351.868.442.818a16.226,16.226,0,0,0,4.615,5.132,27.771,27.771,0,0,0,10.589,4.273,55.84,55.84,0,0,0,10.147,1.068c.826.016,1.66.058,2.478.042l2.445-.05c1.644-.008,3.246-.15,4.865-.25,1.619-.067,3.2-.292,4.8-.459.8-.092,1.569-.15,2.412-.284l2.52-.409c.843-.117,1.669-.325,2.5-.517.826-.208,1.661-.367,2.478-.618,1.619-.509,3.263-.959,4.84-1.611a54.389,54.389,0,0,0,9.121-4.489,52.621,52.621,0,0,0,8.094-6.125c.626-.568,1.21-1.185,1.811-1.777s1.193-1.193,1.736-1.844l1.661-1.911,1.527-2.011.759-1.01.693-1.06,1.377-2.119,1.226-2.2c.2-.367.418-.726.6-1.1l.542-1.143c.351-.768.718-1.519,1.052-2.287l.893-2.353c.142-.392.3-.784.425-1.177l.342-1.16.685-2.311c.968-3.1,1.652-6.116,2.42-9.154.709-3.054,1.46-6.083,2.061-9.163.509-2.553.993-5.123,1.452-7.685a293.667,293.667,0,0,0,33.32,7.3c-.075.993-.317,10.222-.133,13.861a72.274,72.274,0,0,0,3,17.816,45.381,45.381,0,0,0,3.58,8.52,28.672,28.672,0,0,0,5.816,7.493,24.2,24.2,0,0,0,8.311,4.932l1.151.4c.384.117.776.192,1.169.292.793.159,1.569.393,2.37.493a24.667,24.667,0,0,0,4.832.267,27.3,27.3,0,0,0,9.4-2.044,23.621,23.621,0,0,0,4.34-2.295,11.62,11.62,0,0,0,3.788-4.022c.125-.225.225-.475.334-.709.025-.042.066-.175.108-.284s.067-.225.092-.342a3.381,3.381,0,0,0,.1-.709,3.963,3.963,0,0,0-.8-2.6,4.14,4.14,0,0,0-1-.943l-.542-.334c-.276-.167-.559-.333-.835-.534a28.487,28.487,0,0,1-3.2-2.5,32.358,32.358,0,0,1-5.324-6.25,39.868,39.868,0,0,1-5.891-15.5l-.334-2.095c-.109-.7-.117-1.41-.183-2.12a36.483,36.483,0,0,1-.234-4.272l-.008-2.153-.009-1.076.042-.551.568.008,4.823.134c1.611.008,3.221-.042,4.832-.067.926-.025,1.853-.033,2.787-.05,2.295-.033,4.589-.075,6.884-.267l4.832-.3,2.428-.159c.8-.075,1.6-.184,2.4-.276l4.823-.576c1.611-.2,3.221-.35,4.815-.651l4.8-.8,2.4-.4,1.2-.2,1.193-.259,4.765-1.035,2.378-.517c.8-.167,1.594-.351,2.378-.576l4.715-1.269,2.362-.634,1.177-.317,1.168-.375,4.648-1.544c1.544-.526,3.1-.993,4.623-1.619l4.565-1.777,2.286-.885c.76-.317,1.5-.668,2.253-.993,2.971-1.36,6.008-2.6,8.9-4.156l4.381-2.236c1.469-.742,2.862-1.619,4.289-2.42,1.427-.826,2.862-1.635,4.264-2.487l4.148-2.687c2.787-1.752,5.382-3.788,8.044-5.733,1.352-.951,2.6-2.028,3.88-3.071L656,512.034l3.655-3.354c1.218-1.118,2.453-2.22,3.58-3.429l3.48-3.546c.584-.584,1.135-1.2,1.677-1.836L670.034,498l1.636-1.869c.551-.617,1.093-1.252,1.594-1.911l3.071-3.922a106.13,106.13,0,0,0,10.581-16.923c1.585-2.929,2.787-6.067,4.072-9.137.342-.76.576-1.569.843-2.362l.785-2.378.776-2.37c.259-.793.418-1.627.626-2.428l1.152-4.865.851-4.923a49.227,49.227,0,0,0,.526-5.015l.25-3.129.017-.317.025-.35-.008-.2c-.009-.517-.033-.985-.075-1.452a25.716,25.716,0,0,0-1.11-5.374,22.645,22.645,0,0,0-2.178-5.015,19.369,19.369,0,0,0-3.413-4.248,15.888,15.888,0,0,0-3.705-2.536c7.018-9.421,15.463-19.652,19.326-24.266l6.584.017h.405a2.965,2.965,0,0,0,2.964-3.168l-.032-.463a25.974,25.974,0,0,0-4.4-12.7,33.909,33.909,0,0,0-9.43-9.129,58.778,58.778,0,0,0-11.24-5.683,97.29,97.29,0,0,0-11.749-3.638,177.057,177.057,0,0,0-23.9-3.947c-7.985-.818-15.988-1.268-23.966-1.494-15.971-.434-31.91-.017-47.79.768q-11.916.6-23.807,1.469-11.879.926-23.74,2.044c-31.618,2.937-63.111,6.726-94.612,10.014-7.869.851-15.738,1.661-23.615,2.362s-15.755,1.293-23.616,1.577c-1.969.067-3.93.117-5.891.125-1.936.017-3.863-.058-5.8-.192-2.6-.183-5.182-.509-7.752-.926l.017-.025c-.267-.217-.543-.434-.8-.659a53.19,53.19,0,0,1-5.082-4.69,63.652,63.652,0,0,1-5-6.108,83.918,83.918,0,0,1-7.811-13.786c-1.143-2.4-2.128-4.873-3.087-7.368-.426-1.1-.835-2.2-1.227-3.321a38.274,38.274,0,0,0,13.552-5.491,31.493,31.493,0,0,0,10.389-11.766,43.3,43.3,0,0,0,4.381-14.987,57.839,57.839,0,0,0,.375-7.777,53.878,53.878,0,0,0-.667-7.8L379,284.191l-1.719,1.36a36.929,36.929,0,0,1-5.057,3.254,50.453,50.453,0,0,1-5.533,2.6,56.887,56.887,0,0,1-11.741,3.313,65.961,65.961,0,0,1-24.241-.484,90.466,90.466,0,0,1-22.973-8.119,132.078,132.078,0,0,1-20.712-13.143l-4.205-3-1.035,5.007C281.581,275.972,281.464,276.764,281.331,277.649Z" transform="translate(-280.688 -269.972)" fill="#124359" stroke="#124359" stroke-miterlimit="10" stroke-width="14.773"/>
      </g>
      <g id="cor" transform="translate(5.046 7.982)">
        <path id="Caminho_70" data-name="Caminho 70" d="M1166.2,615.327a24.913,24.913,0,0,0,4.11,1.3,8.468,8.468,0,0,0,1.954.206,2.726,2.726,0,0,0,.909-.171c.012-.259.027-.519.025-.784a22.446,22.446,0,0,0-1.665-8.715,15.35,15.35,0,0,0-4.823-6.3,123.576,123.576,0,0,0-7.417,11.1c.941.525,1.9,1.039,2.862,1.521C1163.486,614.159,1164.834,614.781,1166.2,615.327Z" transform="translate(-767.3 -459.321)" fill="#0e6d89"/>
        <path id="Caminho_71" data-name="Caminho 71" d="M768.725,905.386a73.754,73.754,0,0,0,3.164,17.027,42.213,42.213,0,0,0,3.419,7.838,26,26,0,0,0,5.212,6.583,20.762,20.762,0,0,0,7.132,4.184l.984.344c.332.1.678.159,1.017.241.683.136,1.354.346,2.046.425a21.917,21.917,0,0,0,4.17.213,23.714,23.714,0,0,0,8.143-1.815,19.771,19.771,0,0,0,3.656-1.943,8.091,8.091,0,0,0,2.614-2.719c.072-.127.119-.262.182-.391a.3.3,0,0,0,.033-.125.346.346,0,0,0-.071-.221.371.371,0,0,0-.091-.085l-.431-.269c-.33-.2-.66-.408-.971-.632a32.366,32.366,0,0,1-3.6-2.856,35.676,35.676,0,0,1-5.856-6.993,38.962,38.962,0,0,1-4-8.171l-.686-2.168c-.109-.363-.239-.72-.331-1.087l-.246-1.107-.49-2.216c-.187-.735-.222-1.493-.339-2.238a59.167,59.167,0,0,1-.281-12.792l-1.517-.042c-1.607-.011-3.206-.211-4.808-.317l-4.8-.383c-1.6-.129-3.2-.235-4.786-.46l-8.694-1.073A110.756,110.756,0,0,0,768.725,905.386Z" transform="translate(-553.05 -618.964)" fill="url(#linear-gradient)"/>
        <path id="Caminho_72" data-name="Caminho 72" d="M743.206,630.336a23.91,23.91,0,0,1,4.7.556,21.979,21.979,0,0,1,2.792.879,14.927,14.927,0,0,0,6.872-5.98,13.4,13.4,0,0,0,1.659-4.509,13.244,13.244,0,0,0,.158-2.4c-.027-.4-.037-.8-.073-1.2l-.2-1.189a13.974,13.974,0,0,0-5.144-8,16.063,16.063,0,0,0-9.095-3.27,16.4,16.4,0,0,0-9.384,2.382,14.5,14.5,0,0,0-6.012,7.411,13.012,13.012,0,0,0,.443,9.418,13.977,13.977,0,0,0,2.713,4,15.733,15.733,0,0,0,3.91,2.9l-.013.026q.981-.294,1.984-.522A24.93,24.93,0,0,1,743.206,630.336Z" transform="translate(-531.349 -461.691)" fill="#d8e8f4"/>
        <path id="Caminho_73" data-name="Caminho 73" d="M704.947,568.091a3.965,3.965,0,0,0,1.96.37,11.93,11.93,0,0,0,2.377-.3c.4-.105.811-.2,1.216-.311l1.216-.376c.869-.269,1.728-.566,2.61-.794a40.107,40.107,0,0,1,10.842-1.573,26.958,26.958,0,0,1,5.551.565,11.384,11.384,0,0,0,1.188.245,5.02,5.02,0,0,0,1.066.02,4.107,4.107,0,0,0,1.925-.648,3.668,3.668,0,0,0,1.672-3.458,9.114,9.114,0,0,0-.408-2.29l-.183-.578c-.069-.141-.132-.284-.192-.43-.08-.136-.178-.262-.26-.4s-.221-.242-.325-.368a8.087,8.087,0,0,0-4.124-1.813,24.927,24.927,0,0,0-5.036-.32,45.1,45.1,0,0,0-10.207,1.588,31.545,31.545,0,0,0-9.348,3.983,6.048,6.048,0,0,0-2.437,3.551,4.677,4.677,0,0,0-.024,2.067A1.811,1.811,0,0,0,704.947,568.091Z" transform="translate(-517.71 -434.517)" fill="#728c9a"/>
        <path id="Caminho_74" data-name="Caminho 74" d="M694.234,448.036a25.6,25.6,0,0,1-4.848-.976c-1.544-.459-3.054-.968-4.523-1.552-1.477-.6-2.879-1.21-4.373-1.945l-.325-.225a32.929,32.929,0,0,0-7.677-3.613,39.076,39.076,0,0,0-8.378-1.769,62.461,62.461,0,0,0-8.762-.275c-1.477.075-2.962.2-4.44.359-1.469.142-2.937.334-4.389.584a66.593,66.593,0,0,0-16.956,5.407,83.245,83.245,0,0,0-7.928,4.264c-2.42,1.5-5.407,3.521-8.336,5.065a73.139,73.139,0,0,1-9.163,4.106,80.936,80.936,0,0,1-9.571,2.8,93.194,93.194,0,0,1-9.763,1.644c-3.271.325-6.551.5-9.813.526a114.282,114.282,0,0,1-37.543-6.45,11.63,11.63,0,0,0,.192,2.6,39.921,39.921,0,0,0,1.6,5.541,13.181,13.181,0,0,1-3.5-5.007,9.517,9.517,0,0,1-.668-3.18,7.656,7.656,0,0,1,.634-3.346,9.034,9.034,0,0,1,4.715-4.473,12.35,12.35,0,0,1,6.008-1.035,32.663,32.663,0,0,0-5.057,2.745,9.479,9.479,0,0,0-3.33,3.68c.484.142.968.275,1.452.409a149.835,149.835,0,0,0,23.106-2.311,110.96,110.96,0,0,0,12.133-2.963,54.955,54.955,0,0,0,11.215-4.873,31.6,31.6,0,0,0,8.937-7.56,27.98,27.98,0,0,0,3.046-4.79A24.66,24.66,0,0,0,599,428.8l.509-1.485c.175-.534.384-1.06.584-1.585a45.653,45.653,0,0,1,6.6-11.841,42.248,42.248,0,0,1,9.98-9.288,47.474,47.474,0,0,1,12.242-5.816,51.174,51.174,0,0,1,13.343-2.354l25.568-.117,46.939-.209a19.361,19.361,0,0,0-2.654-5.916,27.257,27.257,0,0,0-7.552-7.318c-6.092-4.047-13.427-6.609-20.87-8.495a170.991,170.991,0,0,0-22.99-3.9c-7.777-.826-15.621-1.3-23.49-1.56-15.73-.492-31.518-.15-47.3.559-7.894.359-15.788.835-23.682,1.36q-11.841.726-23.674,1.644c-31.576,2.412-63.1,5.708-94.712,8.461-7.9.634-15.821,1.227-23.74,1.711s-15.863.86-23.816.935c-1.994.009-3.98.009-5.975-.034s-4-.183-5.992-.367a90.628,90.628,0,0,1-11.791-1.986,107.858,107.858,0,0,1-11.432-3.421,95.767,95.767,0,0,1-10.94-4.673l.551-1.085a88.5,88.5,0,0,0,8.72,3.447q1.1.376,2.2.726a105.227,105.227,0,0,0,11.341,2.937c.05.009.108.025.158.033a1.231,1.231,0,0,1,.184.033c-.009-.008-.017-.008-.025-.017a42.567,42.567,0,0,1-4.047-2.987,47.348,47.348,0,0,1-5.758-6.025,58.036,58.036,0,0,1-4.7-6.868,76.6,76.6,0,0,1-3.73-7.393,88.818,88.818,0,0,1-5.049-15.663,79.5,79.5,0,0,1-2.044-16.222c1.277,5.29,2.737,10.472,4.381,15.588.208.617.417,1.243.626,1.869a36.2,36.2,0,0,0,12.968-5.19,28.949,28.949,0,0,0,9.571-10.84,40.761,40.761,0,0,0,4.114-14.127,55.362,55.362,0,0,0,.359-7.444c-.033-1.769-.142-3.571-.342-5.324-1.177.843-2.378,1.594-3.622,2.311a53.514,53.514,0,0,1-5.758,2.854,59.471,59.471,0,0,1-12.25,3.73,69.141,69.141,0,0,1-25.435.042,93.76,93.76,0,0,1-24.108-7.944,132.932,132.932,0,0,1-20.019-11.916,62.94,62.94,0,0,0-.592,7.644,61,61,0,0,0,.6,9.638,42.407,42.407,0,0,0,6.576,17.832,35.2,35.2,0,0,0,6.392,7.01,36.224,36.224,0,0,0,8.086,5.023,55.246,55.246,0,0,0,18.667,4.464l1.376.15-.242,1.344c-.976,5.265-1.594,10.7-2.07,16.088q-.688,8.111-.8,16.272a223.779,223.779,0,0,0,1.894,32.495c2.828,21.5,8.97,42.674,19.193,61.792a143.245,143.245,0,0,0,42.157,48.6l3.288,2.37,3.372,2.245,1.694,1.118,1.727,1.06,3.455,2.111,3.538,1.978,1.769.993,1.8.926,3.6,1.852,3.672,1.728a188.9,188.9,0,0,0,27.37,10.063q2.266-3.8,4.356-7.752,2.2-4.031,4.34-8.153c1.443-2.753,2.837-5.524,4.539-8.336a26.6,26.6,0,0,1,6.642-7.627,10.264,10.264,0,0,1,2.562-1.235,6.958,6.958,0,0,1,3-.284,6.713,6.713,0,0,1,2.77,1.076,4.8,4.8,0,0,1,.568.434,3.993,3.993,0,0,1,.526.467,7.555,7.555,0,0,1,.935,1.118l-2.053,1.444a4.08,4.08,0,0,0-.6-.626,1.947,1.947,0,0,0-.359-.292,2.8,2.8,0,0,0-.384-.259,3.806,3.806,0,0,0-1.652-.551,5.354,5.354,0,0,0-3.447,1.218,23.607,23.607,0,0,0-5.357,6.859c-1.427,2.637-2.687,5.482-3.98,8.295s-2.6,5.641-3.964,8.445a177.011,177.011,0,0,1-9,16.406,129.745,129.745,0,0,1-11.065,15.145,102.891,102.891,0,0,1-28.914,23.757,100.837,100.837,0,0,1-17.24,7.493c-1.485.509-3,.9-4.5,1.369a20.779,20.779,0,0,0-1.986.626,2.721,2.721,0,0,0-1.118,1.076,2.548,2.548,0,0,0-.3,1.494,2.881,2.881,0,0,0,.242.809l.183.467.234.434a9.556,9.556,0,0,0,2.737,3,21.63,21.63,0,0,0,8.086,3.221,50.39,50.39,0,0,0,9,.968c.759.017,1.519.067,2.287.05l2.295-.042c1.527.008,3.054-.125,4.589-.209,1.527-.058,3.054-.25,4.589-.384.76-.084,1.536-.134,2.287-.242l2.236-.334a20.427,20.427,0,0,0,2.228-.434c.734-.175,1.477-.3,2.2-.509,1.444-.442,2.913-.809,4.314-1.377a47.577,47.577,0,0,0,8.169-3.889l1.919-1.2c.651-.392,1.235-.868,1.853-1.3,1.252-.851,2.378-1.869,3.547-2.82.567-.5,1.093-1.043,1.644-1.561a20.78,20.78,0,0,0,1.594-1.61l1.518-1.669,1.41-1.777.71-.884.634-.934,1.277-1.87,1.143-1.961c.192-.326.392-.643.568-.977l.5-1.018a50.4,50.4,0,0,0,3.354-8.453c1.01-2.87,1.8-5.875,2.662-8.845.809-2.979,1.611-5.958,2.361-8.954q2.241-8.988,4.022-18.083c1.151-6.05,2.178-12.175,2.8-18.241l2.495.217c-.117,3.179-.367,6.267-.651,9.4-.317,3.113-.743,6.209-1.185,9.3-.35,2.462-.751,4.915-1.16,7.369a338.678,338.678,0,0,0,35.022,5.849,264.26,264.26,0,0,0,37.584,1.227c25.034-1.01,50.035-6.092,72.908-16.322a162.073,162.073,0,0,0,32.219-19.026c1.277-.91,2.453-1.936,3.663-2.921L657,515.511l3.446-3.179c1.143-1.052,2.312-2.094,3.371-3.238l3.263-3.354c.559-.551,1.068-1.135,1.577-1.728l1.544-1.761,1.535-1.769c.517-.576,1.026-1.168,1.494-1.794L676.1,495c.993-1.21,1.828-2.528,2.729-3.8.868-1.293,1.819-2.537,2.629-3.872,1.619-2.654,3.321-5.274,4.723-8.052l1.11-2.062.55-1.026.484-1.06,1.969-4.239c.659-1.41,1.152-2.887,1.744-4.331l.851-2.17c.284-.726.484-1.477.734-2.211l1.419-4.448,1.135-4.523c.426-1.5.651-3.029.943-4.556l.134-.718c-.108.017-.225.042-.325.058A10.88,10.88,0,0,1,694.234,448.036ZM484.015,423.928a15.362,15.362,0,0,1-2.937.226,6.949,6.949,0,0,1-3.18-.785,4.269,4.269,0,0,1-1.36-1.235,4.468,4.468,0,0,1-.693-1.627,7.555,7.555,0,0,1,.059-3.154,8.851,8.851,0,0,1,3.279-5.073A28.531,28.531,0,0,1,484,409.333c1.66-.834,3.371-1.552,5.107-2.22a43.186,43.186,0,0,1,10.956-2.687,25.068,25.068,0,0,1,6,.134,16.668,16.668,0,0,1,3.238.893,9.683,9.683,0,0,1,3.33,2.153,10.5,10.5,0,0,1,.734.86c.225.325.442.651.634.993.175.359.333.718.475,1.085l.242.793a12.515,12.515,0,0,1,.559,3.48,8.93,8.93,0,0,1-.893,4.072,7.677,7.677,0,0,1-2.962,3.188,8.428,8.428,0,0,1-3.931,1.177,8.828,8.828,0,0,1-1.944-.117,9.284,9.284,0,0,1-.926-.2l-.359-.1-.267-.083a24.014,24.014,0,0,0-4.69-.8,32.112,32.112,0,0,0-4.99,0,32.569,32.569,0,0,0-5.04.734c-.835.167-1.661.409-2.495.617l-1.369.342C484.95,423.753,484.482,423.837,484.015,423.928Zm39.237,23.883a15.648,15.648,0,0,1-2.32,5.616,16.183,16.183,0,0,1-6.618,5.808,20.166,20.166,0,0,1,2.445,1.677,23.821,23.821,0,0,1,3.271,3.213,82.541,82.541,0,0,0-8.311-3.029c-1.36-.3-2.678-.643-4.014-.809a32.278,32.278,0,0,0-4.005-.292,39.4,39.4,0,0,0-8.153.926,85.148,85.148,0,0,0-8.528,2.461A22.258,22.258,0,0,1,494,458.459a16.6,16.6,0,0,1-2.837-2.17,16.791,16.791,0,0,1-3.43-4.715,15.378,15.378,0,0,1-1.552-5.716,16.756,16.756,0,0,1,.718-5.95,17.943,17.943,0,0,1,7.243-9.338,20.075,20.075,0,0,1,22.589.943,18.2,18.2,0,0,1,4.156,4.456,17.039,17.039,0,0,1,2.345,5.691l.234,1.536c.042.517.042,1.035.067,1.544A17.131,17.131,0,0,1,523.251,447.811Z" transform="translate(-291.854 -287.635)" fill="url(#linear-gradient-2)"/>
        <path id="Caminho_75" data-name="Caminho 75" d="M877.311,597.5c12.495-.472,25-3.316,35.921-9.364,2.744-1.508,5.241-3.252,7.984-5.025a80.473,80.473,0,0,1,8.447-4.678,71.859,71.859,0,0,1,18.36-5.953,63.213,63.213,0,0,1,19.332-.525,38.292,38.292,0,0,1,16.868,6.388c5.659-9.953,20.4-28.032,27.179-36.17l-41.121-.127-25.37-.075a45.175,45.175,0,0,0-11.7,1.981,41.689,41.689,0,0,0-10.749,5,36.562,36.562,0,0,0-8.669,7.943,40.092,40.092,0,0,0-5.846,10.313c-.177.467-.365.931-.524,1.407l-.544,1.513a30.077,30.077,0,0,1-1.411,3.22,27.668,27.668,0,0,1-3.955,5.765,36.639,36.639,0,0,1-10.874,8.107,59.1,59.1,0,0,1-12.382,4.476,80.617,80.617,0,0,1-12.782,2.114c-4.286.367-8.57.5-12.841.437-2.972-.026-5.938-.189-8.891-.453a121.469,121.469,0,0,0,14.8,2.827A115.427,115.427,0,0,0,877.311,597.5Z" transform="translate(-594.344 -427.036)" fill="#c8e3f6"/>
        <path id="Caminho_76" data-name="Caminho 76" d="M778.361,633.045c1.931.106,4.169-2.89,4.274-7.06.1-4.076-1.884-7.258-3.778-7.5-.044-.005-.088-.009-.131-.012-1.931-.106-4.169,2.89-4.274,7.06S776.417,632.939,778.361,633.045Z" transform="translate(-556.365 -468.967)" fill="#6693cd"/>
      </g>
      <g id="Luz_e_Sombra" data-name="Luz e Sombra" transform="translate(3.422 6.012)">
        <path id="Caminho_77" data-name="Caminho 77" d="M646.306,858.612" transform="translate(-484.507 -598.62)" fill="#0e6d89"/>
        <path id="Caminho_78" data-name="Caminho 78" d="M688.921,795.436c1.018.209,0,0,1.01.192C806.8,818.643,875.839,774.56,876.9,773.809c0,.008,9.944-7.743,9.944-7.735-.392,1.327-15.147,49.933-123.461,56.967-4.214.275-8.171.358-12.66.475-.91.025-1.748.927-2.665.944-7.786.15-26.548-3.123-26.473-4.116-11.274-1.769-25.4-4.254-36.32-7.3" transform="translate(-505.859 -547.9)" fill="url(#linear-gradient-3)"/>
        <path id="Caminho_79" data-name="Caminho 79" d="M450.061,543.269c-42.674-13.777-138.155-58.043-119.93-196.923v-.008q.263-1.99.551-4.006c.008-.042.008-.084.017-.117.025-.167.05-.343.075-.509,0,0-48.558-7.427-41.882-58.429l11.332,8.361a.008.008,0,0,1,.009.008c.05.693,3.839,36.471,34.689,40.176,0,0-3.275,164.086,123.948,197.456" transform="translate(-288.261 -283.277)" fill="url(#linear-gradient-4)"/>
        <path id="Caminho_80" data-name="Caminho 80" d="M488.152,882.513c2.943-.216,15.485,6.438,13.1,3.856-2.689-2.909-2.059-6.273-1.283-6.545,20.573-7.215,45.86-26.947,52.662-39.881,26.493-50.38,26.819-57.613,29.383-55.926,0,0-3.5-2.292-10.056.484,0,0-26.713,70.706-86.541,86.951C477.741,873.535,485,882.744,488.152,882.513Z" transform="translate(-394.456 -557.247)" fill="url(#linear-gradient-5)"/>
        <path id="Caminho_81" data-name="Caminho 81" d="M739,619.435c-.559,1.577-9.046-1.961-20.97-.993a81.807,81.807,0,0,0-15.846,2.9q2.579-3.705,5.157-7.418a11.819,11.819,0,0,1-1.386-1.135c-4.631-4.406-5.424-9.9-3.4-18.283,1.293-5.349,6.2-10.331,9.755-12.375-3.5-.709-7.21-.893-10.714.985-2.22,1.185-3.5,2.737-5.34,2.253-2.871-.751-5.041-5.908-3.555-9.488a6.74,6.74,0,0,1,2.645-3.021,14.538,14.538,0,0,1,3.212-1.51,5.562,5.562,0,0,0-.918,2.028,4.571,4.571,0,0,0-.025,2.07,1.8,1.8,0,0,0,.918,1.268,4.052,4.052,0,0,0,1.961.376,12.084,12.084,0,0,0,2.378-.309c.4-.109.809-.192,1.218-.309l1.21-.375c.868-.267,1.728-.568,2.612-.793a40.132,40.132,0,0,1,10.84-1.577,26.593,26.593,0,0,1,5.549.567,11.237,11.237,0,0,0,1.193.242,3.783,3.783,0,0,0,.684.033,5.981,5.981,0,0,1,1.268,2.261,7.149,7.149,0,0,1,.267,1.852,6.064,6.064,0,0,1-1.652,4.448c-1.644,1.552-4.03,1.385-6.843.734a4.133,4.133,0,0,1,.834,3.263,16.746,16.746,0,0,0-4.614,1.927,14.51,14.51,0,0,0-6.017,7.41,13.029,13.029,0,0,0,.451,9.421,13.9,13.9,0,0,0,2.712,3.989l.192.192a3.523,3.523,0,0,0,1.06,3.155c2.887,2.236,8.236-1.661,17.232.751a17.856,17.856,0,0,1,4.014,1.619c2.212,1.21,3.755,2.662,3.931,3.513A.641.641,0,0,1,739,619.435Z" transform="translate(-509.671 -441.168)" fill="url(#linear-gradient-6)"/>
        <path id="Caminho_82" data-name="Caminho 82" d="M818.09,489.566h-5.482a3.06,3.06,0,0,1-.067,1.92s-70.19,2.677-106.673,17.865c.058-.133,4.37-18.648,32.68-26.026,6.606-1.722,27.125-5.273,39.436-7.346a1.106,1.106,0,0,0-.12-2.194L709.243,469.6a265.209,265.209,0,0,0-41.821.746c-178.14,17.332-194.585,3.557-194.585,3.557q3.2-.676,6.359-1.335c.259.225.534.442.8.659l-.017.025c2.57.417,5.157.742,7.752.926,1.936.134,3.863.209,5.8.192,1.961-.009,3.922-.058,5.891-.125,7.861-.284,15.747-.884,23.616-1.577s15.746-1.51,23.615-2.362c31.5-3.288,62.994-7.076,94.612-10.014q11.866-1.1,23.74-2.044,11.891-.864,23.807-1.469c15.88-.785,31.819-1.2,47.79-.768,7.977.226,15.98.676,23.966,1.494a177.147,177.147,0,0,1,23.9,3.947,97.276,97.276,0,0,1,11.749,3.638,58.719,58.719,0,0,1,11.24,5.683,33.909,33.909,0,0,1,9.43,9.129,26.152,26.152,0,0,1,3.2,6.542A28.934,28.934,0,0,1,818.09,489.566Z" transform="translate(-389.428 -377.858)" fill="#9cd3ea"/>
        <path id="Caminho_83" data-name="Caminho 83" d="M1015.572,626.857s55.087-12.883,67.3,12.423c6.9,14.289-16.272,43.68-16.272,43.68s29.16-34.261,31.46-54.26c0,0-23.986-14.445-40.415-14.265S1015.572,626.857,1015.572,626.857Z" transform="translate(-686.903 -464.785)" fill="#9cd3ea"/>
        <path id="Caminho_84" data-name="Caminho 84" d="M974.411,494.3c-.507.366.6,4.045,3.445,6.185,3.64,2.741,8.287,1.577,9.008,1.385,5.8-1.549,8.063-7.185,8.327-7.873a14.189,14.189,0,0,1-7.35,4.377,14.007,14.007,0,0,1-9.188-1.016C975.926,495.951,974.808,494.011,974.411,494.3Z" transform="translate(-664.277 -398.771)" fill="#0e6d89"/>
        <path id="Caminho_85" data-name="Caminho 85" d="M421.839,368.165a79.5,79.5,0,0,0,2.044,16.222,88.82,88.82,0,0,0,5.049,15.663,76.616,76.616,0,0,0,3.73,7.393,58.05,58.05,0,0,0,4.7,6.867,47.346,47.346,0,0,0,5.758,6.025,42.572,42.572,0,0,0,4.047,2.988l-.159-.017-12.033-1.385s-.643-.826-1.669-2.311C428.189,412.166,413.5,388.125,421.839,368.165Z" transform="translate(-360.101 -329.804)" fill="#9cd3ea"/>
        <path id="Caminho_86" data-name="Caminho 86" d="M456.541,324.574a40.76,40.76,0,0,1-4.114,14.127,28.949,28.949,0,0,1-9.571,10.84,36.2,36.2,0,0,1-12.968,5.191c-.209-.626-.417-1.252-.626-1.869-1.644-5.115-3.1-10.3-4.381-15.588,0,0,19.719,4.239,31.677-25.468.2,1.752.309,3.555.342,5.324A55.357,55.357,0,0,1,456.541,324.574Z" transform="translate(-363.143 -298.914)" fill="#9cd3ea"/>
        <path id="Caminho_87" data-name="Caminho 87" d="M532.089,909.209s27.99-1.288,48.608-24.479c11.046-12.425,16.089-35.359,22.271-58.31,0,0-3.259,48.775-22.2,69.957S532.089,909.209,532.089,909.209Z" transform="translate(-421.904 -580.975)" fill="#9cd3ea"/>
        <path id="Caminho_88" data-name="Caminho 88" d="M814.62,894.951s-4.43,35.787,21.052,44.972l1.8-3.444s-21.386-18.327-18.013-41.528Z" transform="translate(-576.599 -618.537)" fill="#9cd3ea"/>
        <path id="Caminho_89" data-name="Caminho 89" d="M843.289,595.082s44.883,11.744,61.565-15.213,25.08-25.267,25.08-25.267l71.792-3.9,8.9-10.192H936.037s-19.4,3.049-26.253,15.094-16.97,31.783-47.64,35.965C862.143,591.574,822.465,592.718,843.289,595.082Z" transform="translate(-589.161 -424.27)" fill="url(#linear-gradient-7)"/>
        <path id="Caminho_90" data-name="Caminho 90" d="M740.539,604.252s-20.875,13.411-1.265,26.062l-6.8,1.824s-14.189-11.234-6.462-20.248S738.167,602.624,740.539,604.252Z" transform="translate(-526.931 -458.78)" fill="#98cbe2"/>
        <g id="Grupo_35" data-name="Grupo 35" transform="translate(57.232 132.619)">
          <ellipse id="Elipse_8" data-name="Elipse 8" cx="25.005" cy="29.822" rx="25.005" ry="29.822" transform="translate(15.915 21.47)" fill="#166d9c" opacity="0.19"/>
          <ellipse id="Elipse_9" data-name="Elipse 9" cx="10.261" cy="12.082" rx="10.261" ry="12.082" fill="#166d9c" opacity="0.19"/>
          <ellipse id="Elipse_10" data-name="Elipse 10" cx="7.471" cy="8.067" rx="7.471" ry="8.067" transform="translate(75.328 39.485)" fill="#166d9c" opacity="0.09"/>
          <ellipse id="Elipse_11" data-name="Elipse 11" cx="14.929" cy="9.172" rx="14.929" ry="9.172" transform="translate(72.148 91.423) rotate(-69.888)" fill="#166d9c" opacity="0.09"/>
        </g>
      </g>
      <g id="Line" transform="translate(0.372 0.096)">
        <path id="Caminho_91" data-name="Caminho 91" d="M472.613,501.458a3.993,3.993,0,0,0-.526-.467,4.8,4.8,0,0,0-.568-.434,6.713,6.713,0,0,0-2.77-1.076,6.959,6.959,0,0,0-3,.284A10.265,10.265,0,0,0,463.184,501a26.6,26.6,0,0,0-6.642,7.627c-1.7,2.812-3.1,5.583-4.539,8.336q-.714,1.377-1.427,2.729c1.4.367,2.787.718,4.181,1.06.326-.693.643-1.394.96-2.086,1.293-2.812,2.554-5.657,3.98-8.295a23.607,23.607,0,0,1,5.357-6.859,5.354,5.354,0,0,1,3.447-1.218,3.807,3.807,0,0,1,1.652.551,2.806,2.806,0,0,1,.384.259,1.946,1.946,0,0,1,.359.292,4.077,4.077,0,0,1,.6.626l2.053-1.444A7.559,7.559,0,0,0,472.613,501.458ZM716.42,389.605a25.973,25.973,0,0,0-4.4-12.7,33.91,33.91,0,0,0-9.43-9.129,58.726,58.726,0,0,0-11.24-5.683,97.279,97.279,0,0,0-11.749-3.638,177.139,177.139,0,0,0-23.9-3.947c-7.986-.818-15.989-1.268-23.966-1.494-15.972-.434-31.91-.017-47.79.768q-11.916.6-23.807,1.469-11.879.926-23.74,2.044c-31.618,2.937-63.111,6.726-94.612,10.014-7.869.851-15.738,1.661-23.615,2.362s-15.755,1.293-23.616,1.577c-1.969.067-3.93.117-5.891.125-1.936.017-3.864-.058-5.8-.192-2.6-.184-5.182-.509-7.752-.926l.017-.025c-.267-.217-.542-.434-.8-.659a53.18,53.18,0,0,1-5.082-4.689,63.658,63.658,0,0,1-5-6.108,83.917,83.917,0,0,1-7.811-13.786c-1.143-2.4-2.128-4.873-3.087-7.369-.426-1.1-.835-2.2-1.227-3.321a38.267,38.267,0,0,0,13.552-5.491,31.483,31.483,0,0,0,10.389-11.766,43.278,43.278,0,0,0,4.381-14.987,57.919,57.919,0,0,0,.376-7.777,53.948,53.948,0,0,0-.668-7.8l-.333-2.07-1.719,1.36a36.888,36.888,0,0,1-5.057,3.255,50.494,50.494,0,0,1-5.532,2.6,56.9,56.9,0,0,1-11.741,3.313,65.96,65.96,0,0,1-24.241-.484,90.463,90.463,0,0,1-22.973-8.119,132.086,132.086,0,0,1-20.711-13.143l-4.206-3-1.035,5.007c-.2.993-.317,1.786-.451,2.67-.117.868-.217,1.728-.309,2.6-.167,1.719-.267,3.446-.317,5.174a65.98,65.98,0,0,0,.576,10.406,47.138,47.138,0,0,0,7.227,19.9,39.822,39.822,0,0,0,7.268,8.078,41.138,41.138,0,0,0,9.138,5.774,58,58,0,0,0,16.113,4.581c-.208,1.394-.392,2.771-.576,4.172q-.513,4.143-.868,8.3-.714,8.3-.835,16.623a223.536,223.536,0,0,0,1.994,33.228c2.937,22.013,9.271,43.768,19.86,63.495a160.655,160.655,0,0,0,8.7,14.336,143.574,143.574,0,0,0,10.3,13.243,150.28,150.28,0,0,0,24.692,22.556c16.839,12.275,36.041,20.8,55.8,26.427q-1.277,2.015-2.6,3.981a125.338,125.338,0,0,1-10.99,14.2,109.392,109.392,0,0,1-12.893,12.225,97.449,97.449,0,0,1-14.737,9.671,94.494,94.494,0,0,1-16.205,6.926c-1.394.475-2.829.834-4.239,1.26l-1.06.309-.818.25a8.9,8.9,0,0,0-5.157,4.256,8.871,8.871,0,0,0-.451,7.8l.351.868.442.818a16.231,16.231,0,0,0,4.615,5.132,27.77,27.77,0,0,0,10.589,4.273,55.854,55.854,0,0,0,10.147,1.068c.826.017,1.661.059,2.478.042l2.445-.05c1.644-.008,3.246-.15,4.865-.25,1.619-.067,3.2-.292,4.8-.459.8-.092,1.569-.15,2.412-.283l2.52-.409c.843-.117,1.669-.325,2.5-.518.826-.209,1.661-.367,2.479-.618,1.619-.509,3.263-.959,4.84-1.611a54.4,54.4,0,0,0,9.121-4.489,52.651,52.651,0,0,0,8.094-6.125c.626-.568,1.21-1.185,1.811-1.777s1.193-1.193,1.736-1.844l1.661-1.911,1.527-2.011.759-1.01.693-1.06,1.377-2.119,1.226-2.2c.2-.367.418-.726.6-1.1l.542-1.143c.351-.767.718-1.518,1.052-2.286l.893-2.353c.142-.392.3-.784.426-1.176l.342-1.16.684-2.311c.968-3.1,1.652-6.117,2.42-9.154.71-3.054,1.461-6.083,2.061-9.163.509-2.553.993-5.124,1.452-7.685a293.631,293.631,0,0,0,33.32,7.3c-.075.993-.317,10.222-.133,13.861a72.253,72.253,0,0,0,3,17.816,45.312,45.312,0,0,0,3.58,8.52,28.669,28.669,0,0,0,5.816,7.493,24.2,24.2,0,0,0,8.311,4.932l1.152.4c.384.117.776.192,1.168.292.793.159,1.568.392,2.37.493a24.665,24.665,0,0,0,4.832.267,27.3,27.3,0,0,0,9.4-2.044,23.617,23.617,0,0,0,4.34-2.295,11.616,11.616,0,0,0,3.788-4.022c.125-.226.225-.476.334-.71.025-.042.067-.175.108-.283s.067-.226.092-.343a3.405,3.405,0,0,0,.1-.709,3.967,3.967,0,0,0-.8-2.6,4.141,4.141,0,0,0-1-.943l-.542-.334c-.276-.167-.559-.333-.835-.534a28.478,28.478,0,0,1-3.2-2.495,32.388,32.388,0,0,1-5.324-6.25,39.866,39.866,0,0,1-5.891-15.5l-.334-2.095c-.109-.7-.117-1.41-.183-2.12a36.468,36.468,0,0,1-.234-4.272l-.008-2.153-.009-1.077.042-.55.567.008,4.823.134c1.611.008,3.221-.042,4.832-.067.926-.025,1.853-.033,2.787-.05,2.295-.033,4.589-.075,6.884-.267l4.832-.3,2.428-.158c.8-.075,1.6-.184,2.4-.276l4.823-.576c1.611-.2,3.221-.351,4.815-.651l4.8-.8,2.4-.4,1.2-.2,1.193-.259,4.765-1.035,2.378-.517c.8-.167,1.594-.35,2.378-.576l4.715-1.268,2.362-.634,1.177-.317,1.168-.375,4.648-1.544c1.544-.526,3.1-.993,4.623-1.619l4.565-1.777,2.286-.885c.76-.317,1.5-.667,2.253-.993,2.971-1.36,6.008-2.6,8.9-4.156l4.381-2.236c1.469-.743,2.862-1.619,4.289-2.42,1.427-.827,2.862-1.636,4.264-2.487l4.148-2.687c2.787-1.752,5.382-3.789,8.044-5.733,1.352-.951,2.6-2.028,3.88-3.071l3.822-3.154,3.655-3.354c1.218-1.118,2.453-2.22,3.58-3.43l3.48-3.546c.584-.584,1.135-1.2,1.677-1.836l1.644-1.869,1.635-1.87c.551-.617,1.093-1.252,1.594-1.911l3.071-3.922a106.085,106.085,0,0,0,10.581-16.923c1.586-2.929,2.787-6.067,4.073-9.138.342-.759.576-1.569.843-2.361l.784-2.378.776-2.37c.259-.793.417-1.627.626-2.429l1.151-4.865.851-4.923a49.207,49.207,0,0,0,.526-5.015l.25-3.129.017-.317.025-.35-.008-.2c-.009-.517-.033-.985-.075-1.452a25.691,25.691,0,0,0-1.11-5.374,22.652,22.652,0,0,0-2.178-5.015,19.378,19.378,0,0,0-3.413-4.247,15.882,15.882,0,0,0-3.705-2.537c7.018-9.421,15.463-19.652,19.326-24.266l6.584.017h0a3.342,3.342,0,0,0,3.342-3.571ZM526.52,566.313c.125.742.159,1.5.342,2.236l.493,2.212.242,1.11c.092.367.226.726.334,1.085l.684,2.17a39.052,39.052,0,0,0,4.006,8.169,35.53,35.53,0,0,0,5.849,6.993,33.2,33.2,0,0,0,3.6,2.862c.309.217.643.426.977.626l.425.275a.286.286,0,0,1,.092.084.379.379,0,0,1,.076.217.349.349,0,0,1-.033.125c-.067.134-.117.267-.183.392a8.109,8.109,0,0,1-2.621,2.72,19.3,19.3,0,0,1-3.655,1.944,23.573,23.573,0,0,1-8.136,1.811,21.791,21.791,0,0,1-4.172-.209c-.693-.084-1.368-.292-2.044-.426-.342-.084-.684-.142-1.018-.242l-.985-.343a20.825,20.825,0,0,1-7.135-4.189,25.99,25.99,0,0,1-5.207-6.576,42.107,42.107,0,0,1-3.421-7.844,73.634,73.634,0,0,1-3.163-17.023c-.267-3.5-.267-12.35-.225-13.252l8.695,1.076c1.594.226,3.188.326,4.79.459l4.8.384c1.6.1,3.2.3,4.806.317l1.519.042c-.017.25-.042.5-.05.751A58.727,58.727,0,0,0,526.52,566.313Zm163.9-140.391a22.238,22.238,0,0,1,1.66,8.712c.009.267-.008.526-.025.785a2.678,2.678,0,0,1-.91.167,8.648,8.648,0,0,1-1.953-.2,25.18,25.18,0,0,1-4.105-1.31c-1.368-.543-2.712-1.169-4.047-1.827-.96-.484-1.919-1-2.862-1.519a124.141,124.141,0,0,1,7.418-11.107A15.333,15.333,0,0,1,690.418,425.921Zm-14.353,3.455a38.375,38.375,0,0,0-16.864-6.392,63.361,63.361,0,0,0-19.335.526,71.535,71.535,0,0,0-18.358,5.958,80.939,80.939,0,0,0-8.453,4.673c-2.737,1.778-5.24,3.522-7.977,5.024-10.923,6.05-23.432,8.9-35.924,9.363a114.9,114.9,0,0,1-18.775-.876,120.2,120.2,0,0,1-14.8-2.829c2.954.267,5.916.426,8.887.451a127.1,127.1,0,0,0,12.842-.434,80.727,80.727,0,0,0,12.784-2.111,59.534,59.534,0,0,0,12.383-4.481,36.551,36.551,0,0,0,10.873-8.1,27.7,27.7,0,0,0,3.955-5.766,30.582,30.582,0,0,0,1.41-3.221l.542-1.511c.159-.475.351-.943.526-1.41a40.2,40.2,0,0,1,5.849-10.314,36.475,36.475,0,0,1,8.662-7.936,41.676,41.676,0,0,1,10.748-5A45.008,45.008,0,0,1,636.754,393l25.368.075,41.123.125C696.468,401.346,681.723,419.421,676.065,429.376Zm-13.9-42.624-25.568.117a51.17,51.17,0,0,0-13.343,2.353,47.477,47.477,0,0,0-12.242,5.816c-.017.017-.042.025-.058.042a42.135,42.135,0,0,0-9.922,9.246,45.653,45.653,0,0,0-6.6,11.841c-.2.526-.409,1.052-.584,1.585l-.509,1.485a24.657,24.657,0,0,1-1.068,2.621,27.98,27.98,0,0,1-3.046,4.79,31.6,31.6,0,0,1-8.937,7.56,54.955,54.955,0,0,1-11.215,4.873,110.96,110.96,0,0,1-12.133,2.963,149.835,149.835,0,0,1-23.106,2.311c-.484-.134-.968-.267-1.452-.409a9.48,9.48,0,0,1,3.33-3.68,32.658,32.658,0,0,1,5.057-2.745,12.349,12.349,0,0,0-6.008,1.035,9.034,9.034,0,0,0-4.715,4.473,7.656,7.656,0,0,0-.634,3.346,9.516,9.516,0,0,0,.668,3.18,13.181,13.181,0,0,0,3.5,5.007,39.913,39.913,0,0,1-1.6-5.541,11.631,11.631,0,0,1-.192-2.6,114.281,114.281,0,0,0,37.543,6.45c3.263-.025,6.542-.2,9.813-.526A93.187,93.187,0,0,0,588.9,450.7a80.933,80.933,0,0,0,9.571-2.8,73.147,73.147,0,0,0,9.163-4.106c2.929-1.544,5.916-3.563,8.336-5.065a83.245,83.245,0,0,1,7.928-4.264,66.6,66.6,0,0,1,16.956-5.407c1.452-.25,2.921-.442,4.389-.584,1.477-.159,2.963-.284,4.44-.359a62.453,62.453,0,0,1,8.762.275,39.074,39.074,0,0,1,8.378,1.769,32.927,32.927,0,0,1,7.677,3.613l.325.225c1.494.734,2.9,1.344,4.373,1.945,1.469.584,2.979,1.093,4.523,1.552a25.6,25.6,0,0,0,4.848.976,10.879,10.879,0,0,0,2.7-.042c.1-.017.217-.042.325-.058l-.134.718c-.292,1.527-.517,3.054-.943,4.556l-1.135,4.523-1.419,4.448c-.25.734-.451,1.485-.734,2.211l-.851,2.17c-.592,1.444-1.085,2.921-1.744,4.331l-1.969,4.239-.484,1.06-.55,1.026-1.11,2.062c-1.4,2.779-3.1,5.4-4.723,8.052-.809,1.335-1.761,2.579-2.629,3.872-.9,1.268-1.736,2.587-2.729,3.8l-2.253,2.887-.008.025-.609.776c-.468.626-.977,1.218-1.494,1.794l-1.535,1.769-1.544,1.761c-.509.593-1.018,1.177-1.577,1.728l-3.263,3.354c-1.06,1.143-2.228,2.186-3.371,3.238l-3.446,3.179-3.605,2.988c-1.21.985-2.386,2.011-3.663,2.921a162.072,162.072,0,0,1-32.219,19.026c-22.873,10.23-47.873,15.312-72.908,16.322a264.251,264.251,0,0,1-37.584-1.227,338.678,338.678,0,0,1-35.022-5.849c.408-2.453.809-4.907,1.16-7.369.426-2.962.835-5.941,1.143-8.929.017-.125.033-.242.042-.367.283-3.129.534-6.217.651-9.4l-2.495-.217c-.317,3.112-.751,6.242-1.244,9.371-.467,2.962-1,5.925-1.56,8.87q-1.039,5.357-2.261,10.673-.838,3.717-1.761,7.41c-.751,3-1.552,5.974-2.361,8.954-.859,2.97-1.653,5.974-2.662,8.845a50.4,50.4,0,0,1-3.354,8.453l-.5,1.018c-.175.334-.376.651-.568.977l-1.143,1.961-1.277,1.87-.634.935-.709.884-1.41,1.777-1.518,1.669a20.791,20.791,0,0,1-1.594,1.61c-.55.517-1.076,1.06-1.644,1.561-1.169.951-2.295,1.969-3.547,2.82-.618.434-1.2.91-1.853,1.3l-1.919,1.2a47.568,47.568,0,0,1-8.169,3.889c-1.4.568-2.87.935-4.314,1.377-.726.208-1.469.333-2.2.509a20.442,20.442,0,0,1-2.228.434l-2.236.334c-.751.108-1.527.159-2.287.242-1.536.133-3.063.325-4.589.384-1.536.084-3.063.217-4.589.209l-2.295.042c-.768.017-1.527-.033-2.287-.05a50.4,50.4,0,0,1-9-.968,21.63,21.63,0,0,1-8.086-3.221,9.555,9.555,0,0,1-2.737-3l-.234-.434-.183-.467a2.881,2.881,0,0,1-.242-.809,2.547,2.547,0,0,1,.3-1.494,2.72,2.72,0,0,1,1.118-1.076,20.763,20.763,0,0,1,1.986-.626c1.494-.467,3.013-.859,4.5-1.369a100.847,100.847,0,0,0,17.24-7.493,102.892,102.892,0,0,0,28.914-23.758,129.74,129.74,0,0,0,11.065-15.145q1.577-2.528,3.054-5.115,3.18-5.545,5.95-11.29,1.539-3.167,3-6.359c.326-.693.643-1.394.96-2.086,1.293-2.812,2.554-5.657,3.98-8.295a23.607,23.607,0,0,1,5.357-6.859,5.354,5.354,0,0,1,3.447-1.218,3.807,3.807,0,0,1,1.652.551,2.806,2.806,0,0,1,.384.259,1.946,1.946,0,0,1,.359.292,4.077,4.077,0,0,1,.6.626l2.053-1.444a7.559,7.559,0,0,0-.935-1.118,3.993,3.993,0,0,0-.526-.467,4.8,4.8,0,0,0-.568-.434,6.713,6.713,0,0,0-2.77-1.076,6.959,6.959,0,0,0-3,.284A10.265,10.265,0,0,0,463.184,501a26.6,26.6,0,0,0-6.642,7.627c-1.7,2.812-3.1,5.583-4.539,8.336q-.714,1.377-1.427,2.729c-.96,1.828-1.928,3.63-2.912,5.424q-2.09,3.942-4.356,7.752a188.91,188.91,0,0,1-27.37-10.063l-3.672-1.728-3.6-1.852-1.8-.926L405.1,517.3l-3.538-1.978-3.455-2.111-1.727-1.06-1.694-1.118-3.372-2.245-3.288-2.37a143.245,143.245,0,0,1-42.157-48.6c-10.222-19.118-16.364-40.288-19.193-61.792a223.783,223.783,0,0,1-1.894-32.495q.113-8.148.8-16.272c.234-2.7.509-5.4.851-8.094v-.008c.167-1.335.351-2.679.551-4.006.008-.042.008-.084.017-.117.2-1.3.417-2.587.651-3.864l.242-1.344-1.376-.15a62.584,62.584,0,0,1-9.572-1.427,48.738,48.738,0,0,1-9.1-3.038,36.225,36.225,0,0,1-8.086-5.023,35.2,35.2,0,0,1-6.392-7.01,42.407,42.407,0,0,1-6.576-17.832,61,61,0,0,1-.6-9.638,62.935,62.935,0,0,1,.592-7.644q4.744,3.38,9.738,6.392a.008.008,0,0,1,.009.008c3.338,1.995,6.751,3.847,10.272,5.516a93.759,93.759,0,0,0,24.108,7.944,69.142,69.142,0,0,0,25.435-.042,59.471,59.471,0,0,0,12.25-3.73,53.514,53.514,0,0,0,5.758-2.854c1.243-.718,2.445-1.469,3.622-2.311.2,1.752.309,3.555.342,5.324a55.362,55.362,0,0,1-.359,7.444,40.761,40.761,0,0,1-4.114,14.127,28.948,28.948,0,0,1-9.571,10.84,36.2,36.2,0,0,1-12.968,5.19c-.209-.626-.418-1.252-.626-1.869-1.644-5.116-3.1-10.3-4.381-15.588a79.5,79.5,0,0,0,2.044,16.222,88.821,88.821,0,0,0,5.049,15.663,76.609,76.609,0,0,0,3.73,7.393,58.045,58.045,0,0,0,4.7,6.867,47.344,47.344,0,0,0,5.758,6.025,42.947,42.947,0,0,0,4.073,3c-.108-.025-.225-.042-.342-.067a105.222,105.222,0,0,1-11.341-2.937,95.408,95.408,0,0,1-10.923-4.172l-.551,1.085a95.755,95.755,0,0,0,10.94,4.673q4.205,1.514,8.536,2.687c.96.259,1.928.5,2.9.734a90.624,90.624,0,0,0,11.791,1.986c1.994.183,3.989.317,5.992.367s3.98.042,5.975.033c7.952-.075,15.888-.459,23.816-.935s15.838-1.076,23.74-1.711c31.61-2.753,63.136-6.05,94.712-8.461q11.841-.914,23.674-1.644c7.894-.526,15.788-1,23.682-1.36,15.78-.709,31.568-1.051,47.3-.559,7.869.259,15.713.734,23.49,1.56a170.991,170.991,0,0,1,22.99,3.9c7.443,1.886,14.778,4.448,20.87,8.495a27.256,27.256,0,0,1,7.552,7.318,19.359,19.359,0,0,1,2.654,5.916Z" transform="translate(-281.512 -270.185)" fill="#124359"/>
        <path id="Caminho_92" data-name="Caminho 92" d="M759.138,612.882l-.234-1.536a17.038,17.038,0,0,0-2.345-5.691A18.2,18.2,0,0,0,752.4,601.2a19.763,19.763,0,0,0-10.113-3.889c-.359-.034-.718-.059-1.076-.067a19.675,19.675,0,0,0-11.4,3.012,17.942,17.942,0,0,0-7.243,9.338,16.753,16.753,0,0,0-.718,5.95,15.376,15.376,0,0,0,1.552,5.716,16.791,16.791,0,0,0,3.43,4.715,16.6,16.6,0,0,0,2.837,2.17,22.259,22.259,0,0,0-6.984,4.923,85.154,85.154,0,0,1,8.528-2.461,39.394,39.394,0,0,1,8.153-.926,32.271,32.271,0,0,1,4.005.292c1.335.167,2.654.509,4.014.809a77.2,77.2,0,0,1,7.844,2.837c.151.066.309.125.467.192-.142-.175-.292-.35-.459-.526a24.572,24.572,0,0,0-2.812-2.687c-.359-.292-.734-.568-1.118-.826-.426-.3-.876-.584-1.327-.851a16.184,16.184,0,0,0,6.618-5.808,15.647,15.647,0,0,0,2.32-5.616,17.119,17.119,0,0,0,.284-3.071C759.18,613.917,759.18,613.4,759.138,612.882Zm-3.738,4.03a13.275,13.275,0,0,1-1.653,4.506,14.969,14.969,0,0,1-6.876,5.983,21.217,21.217,0,0,0-2.8-.876,23.935,23.935,0,0,0-4.7-.559,24.547,24.547,0,0,0-4.69.5c-.667.151-1.327.326-1.977.517l.008-.025a15.6,15.6,0,0,1-3.713-2.712l-.192-.192a13.9,13.9,0,0,1-2.712-3.989,13.028,13.028,0,0,1-.451-9.421,14.511,14.511,0,0,1,6.017-7.41,16.746,16.746,0,0,1,4.614-1.927,15.869,15.869,0,0,1,4.773-.459,16.091,16.091,0,0,1,9.087,3.271,13.976,13.976,0,0,1,5.149,7.994l.2,1.193c.033.4.042.8.066,1.2A12.9,12.9,0,0,1,755.4,616.912Z" transform="translate(-522.85 -449.435)" fill="#124359"/>
        <path id="Caminho_93" data-name="Caminho 93" d="M737.7,552.848l-.242-.793c-.142-.367-.3-.726-.475-1.085-.192-.342-.409-.667-.635-.993a10.485,10.485,0,0,0-.734-.86,9.682,9.682,0,0,0-3.33-2.153,16.673,16.673,0,0,0-3.238-.893,25.075,25.075,0,0,0-6-.134,43.186,43.186,0,0,0-10.956,2.687c-1.736.668-3.447,1.385-5.107,2.22a28.532,28.532,0,0,0-4.815,2.946,8.85,8.85,0,0,0-3.279,5.073,7.555,7.555,0,0,0-.059,3.154,4.469,4.469,0,0,0,.693,1.627,4.268,4.268,0,0,0,1.36,1.235,6.95,6.95,0,0,0,3.18.785A15.37,15.37,0,0,0,707,565.44c.468-.092.935-.175,1.394-.284l1.369-.342c.834-.208,1.66-.451,2.495-.617a32.57,32.57,0,0,1,5.04-.734,32.1,32.1,0,0,1,4.99,0,24.016,24.016,0,0,1,4.69.8l.267.083.359.1a9.255,9.255,0,0,0,.926.2,8.826,8.826,0,0,0,1.944.117,6.223,6.223,0,0,0,.785-.075,8.254,8.254,0,0,0,3.146-1.1,7.677,7.677,0,0,0,2.962-3.188,8.932,8.932,0,0,0,.893-4.072A12.515,12.515,0,0,0,737.7,552.848Zm-5.674,7.068a4.048,4.048,0,0,1-1.919.643,1.985,1.985,0,0,1-.384.017,3.771,3.771,0,0,1-.684-.034,11.235,11.235,0,0,1-1.193-.242,26.6,26.6,0,0,0-5.549-.567,40.133,40.133,0,0,0-10.84,1.577c-.884.225-1.744.526-2.612.793l-1.21.376c-.409.117-.818.2-1.218.309a12.085,12.085,0,0,1-2.378.309,4.05,4.05,0,0,1-1.961-.376,1.8,1.8,0,0,1-.918-1.268,4.57,4.57,0,0,1,.025-2.07,5.562,5.562,0,0,1,.918-2.028,6.281,6.281,0,0,1,1.519-1.527,31.515,31.515,0,0,1,9.346-3.981,45.289,45.289,0,0,1,10.205-1.585,25.056,25.056,0,0,1,5.032.317,8.142,8.142,0,0,1,4.131,1.811c.1.133.234.242.325.376.075.133.175.258.259.392a4.01,4.01,0,0,0,.192.434l.184.576a9.506,9.506,0,0,1,.409,2.286A3.69,3.69,0,0,1,732.029,559.916Z" transform="translate(-510.169 -421.261)" fill="#124359"/>
        <path id="Caminho_94" data-name="Caminho 94" d="M985.921,493.527a11.78,11.78,0,0,1-5.8-.515,29.362,29.362,0,0,1-5.721-2.864,13.445,13.445,0,0,0,4.931,4.666,10.875,10.875,0,0,0,7.01,1.18,12.912,12.912,0,0,0,6.3-3.115,14.941,14.941,0,0,0,3.98-5.46,38.17,38.17,0,0,1-5.149,3.885A15.6,15.6,0,0,1,985.921,493.527Z" transform="translate(-661.285 -389.252)" fill="#124359"/>
        <path id="Caminho_95" data-name="Caminho 95" d="M774.1,611.234c-4.47-.246-8.087,4.2-8.236,10.114-.144,5.713,3.006,10.41,7.247,10.95.152.019.305.034.46.042,4.469.246,8.087-4.2,8.235-10.113S778.58,611.481,774.1,611.234Zm-.447,17.839c-1.943-.106-4.014-3.341-3.909-7.511s2.343-7.166,4.274-7.06c.043,0,.087.006.131.012,1.894.241,3.88,3.424,3.778,7.5C777.823,626.183,775.585,629.179,773.654,629.073Z" transform="translate(-546.985 -457.11)" fill="#124359"/>
        <g id="Grupo_36" data-name="Grupo 36" transform="translate(334.893 119.417)">
          <path id="Caminho_96" data-name="Caminho 96" d="M1155.7,566.245s14.088-23.226,24.525-31.8" transform="translate(-1095.552 -534.443)" fill="none" stroke="#104359" stroke-miterlimit="10" stroke-width="0.923"/>
          <path id="Caminho_97" data-name="Caminho 97" d="M1142.616,576.356s-7.437,13.121-8.41,17.209" transform="translate(-1083.769 -557.416)" fill="none" stroke="#104359" stroke-miterlimit="10" stroke-width="0.923"/>
          <path id="Caminho_98" data-name="Caminho 98" d="M1120.167,574.256a78.79,78.79,0,0,0-4.222,16.274" transform="translate(-1073.76 -556.265)" fill="none" stroke="#104359" stroke-miterlimit="10" stroke-width="0.923"/>
          <path id="Caminho_99" data-name="Caminho 99" d="M1119.227,534.443s-5.945,15.94-7.643,22.323" transform="translate(-1071.37 -534.443)" fill="none" stroke="#104359" stroke-miterlimit="10" stroke-width="0.923"/>
          <path id="Caminho_100" data-name="Caminho 100" d="M1088.156,551.3s-3.539,17.268-3.822,20.948" transform="translate(-1056.434 -543.681)" fill="none" stroke="#104359" stroke-miterlimit="10" stroke-width="0.923"/>
          <path id="Caminho_101" data-name="Caminho 101" d="M1042.114,538.037s-1.691,22.977-2.257,26.94" transform="translate(-1032.056 -536.413)" fill="none" stroke="#104359" stroke-miterlimit="10" stroke-width="0.923"/>
          <path id="Caminho_102" data-name="Caminho 102" d="M1023.035,587.63s-.991,11.548,0,19.433" transform="translate(-1022.595 -563.595)" fill="none" stroke="#104359" stroke-miterlimit="10" stroke-width="0.923"/>
          <path id="Caminho_103" data-name="Caminho 103" d="M1150.775,534.521s-4.639,8.362-8.223,16.8" transform="translate(-1088.344 -534.486)" fill="none" stroke="#104359" stroke-miterlimit="10" stroke-width="0.923"/>
        </g>
      </g>
      <ellipse id="highlight" cx="2.069" cy="3.23" rx="2.069" ry="3.23" transform="translate(222.725 156.217)" fill="#fff" opacity="0.75"/>
    </g>
  </g>
</svg>
