<svg xmlns="http://www.w3.org/2000/svg" width="253" height="86.201" viewBox="0 0 253 86.201">
  <defs>
    <style>
      .cls-1 {
        fill: #fff;
      }
    </style>
  </defs>
  <g id="Grupo_320" data-name="Grupo 320" transform="translate(-2965.961 -331.159)">
    <g id="Grupo_11" data-name="Grupo 11" transform="translate(2965.961 331.159)">
      <g id="Grupo_4" data-name="Grupo 4" transform="translate(33.748)">
        <g id="Grupo_2" data-name="Grupo 2" transform="translate(0 6.182)">
          <path id="Caminho_28" data-name="Caminho 28" class="cls-1" d="M3225.181,372.17a22.155,22.155,0,0,1-12.793-4.046c-.424-.3-.833-.614-1.325-1.021a38.549,38.549,0,0,0-24.576-8.888,38.1,38.1,0,0,0-16.615,3.764,38.517,38.517,0,0,0-7.951,5.1l-.237.2c-.341.282-.693.574-1.079.846a22.2,22.2,0,0,1-25.585,0c-.423-.3-.832-.613-1.325-1.021a38.165,38.165,0,0,0-37.285-6.678,13,13,0,0,0-1.3.628,36.225,36.225,0,0,0-.021-3.8,42.734,42.734,0,0,1,14.012-2.433,41.967,41.967,0,0,1,26.756,9.67c.427.352.761.61,1.115.859a18.809,18.809,0,0,0,21.669,0c.276-.195.563-.433.866-.684l.243-.2a41.914,41.914,0,0,1,8.645-5.546,41.477,41.477,0,0,1,18.086-4.1,41.954,41.954,0,0,1,26.745,9.67c.426.352.76.609,1.115.859a18.806,18.806,0,0,0,21.669,0c.277-.195.563-.432.866-.684l.243-.2a41.713,41.713,0,0,1,26.731-9.645,44.943,44.943,0,0,1,14.255,2.5v3.44a43.241,43.241,0,0,0-14.255-2.534,38.1,38.1,0,0,0-16.615,3.764,38.523,38.523,0,0,0-7.951,5.1l-.238.2c-.34.283-.692.574-1.078.846a22.155,22.155,0,0,1-12.792,4.046Z" transform="translate(-3095.094 -354.815)"/>
        </g>
        <g id="Grupo_3" data-name="Grupo 3" transform="translate(0.02)">
          <path id="Caminho_29" data-name="Caminho 29" class="cls-1" d="M3264.283,348.514a22.156,22.156,0,0,1-12.793-4.046c-.384-.271-.684-.523-.973-.768l-.206-.173-.149-.111a38.507,38.507,0,0,0-24.555-8.858,38.1,38.1,0,0,0-16.615,3.764,38.525,38.525,0,0,0-7.951,5.1l-.238.2c-.34.282-.692.574-1.079.846a22.2,22.2,0,0,1-25.585,0c-.424-.3-.833-.614-1.325-1.021a38.55,38.55,0,0,0-24.577-8.888,38.1,38.1,0,0,0-16.615,3.764,38.531,38.531,0,0,0-7.95,5.1l-.239.2c-.34.282-.692.574-1.078.846a22.146,22.146,0,0,1-12.792,4.046,28.309,28.309,0,0,1-12.795-3.833,14.559,14.559,0,0,1-1.6-1.1v-3.8c.48.316,4.22,2.506,5.532,3.131a20.458,20.458,0,0,0,8.858,2.208,18.754,18.754,0,0,0,10.834-3.426c.277-.195.563-.432.866-.684l.243-.2a41.917,41.917,0,0,1,8.646-5.546,41.476,41.476,0,0,1,18.085-4.1,41.955,41.955,0,0,1,26.746,9.67c.425.352.76.609,1.114.86a18.812,18.812,0,0,0,21.669,0c.276-.195.563-.432.866-.684l.243-.2a41.912,41.912,0,0,1,8.645-5.546,41.481,41.481,0,0,1,18.086-4.1,41.918,41.918,0,0,1,26.65,9.578l.146.108.305.255c.267.225.478.4.741.588a18.745,18.745,0,0,0,10.834,3.426,19.442,19.442,0,0,0,9.122-2.355c.952-.529,1.7-.966,2.334-1.34a14.514,14.514,0,0,0,2.43-1.582v3.682l-.018.105c-.339.282-.691.573-1.076.844a22.146,22.146,0,0,1-12.792,4.046Z" transform="translate(-3095.173 -331.159)"/>
        </g>
      </g>
      <g id="Grupo_9" data-name="Grupo 9" transform="translate(0 57.642)">
        <path id="Caminho_30" data-name="Caminho 30" class="cls-1" d="M2973.263,632.492h1.572v-9.208a9.289,9.289,0,0,0-1.572-.185Z" transform="translate(-2971.355 -604.445)"/>
        <path id="Caminho_31" data-name="Caminho 31" class="cls-1" d="M2973.263,632.492h1.572v-9.208a9.289,9.289,0,0,0-1.572-.185Z" transform="translate(-2971.355 -604.445)"/>
        <path id="Caminho_32" data-name="Caminho 32" class="cls-1" d="M3232.089,569.1v20.668L3218.278,569.1h-1.572v23.493h1.572V571.8l13.812,20.786h1.572V569.1Z" transform="translate(-3151.176 -564.557)"/>
        <path id="Caminho_33" data-name="Caminho 33" class="cls-1" d="M3065.246,590.67a18.314,18.314,0,0,1-7.136.4,18.414,18.414,0,0,0-5.488-.3V569.1h-1.553v23.518a15.22,15.22,0,0,1,6.738-.063,17.312,17.312,0,0,0,3.416.282,13.672,13.672,0,0,0,4.079-.63Z" transform="translate(-3028.826 -564.557)"/>
        <path id="Caminho_34" data-name="Caminho 34" class="cls-1" d="M3398.824,569.1h-17.14v1.572h7.784v21.909h1.572V570.669h7.784Z" transform="translate(-3273.037 -564.557)"/>
        <g id="Grupo_5" data-name="Grupo 5" transform="translate(39.841 4.478)">
          <path id="Caminho_35" data-name="Caminho 35" class="cls-1" d="M3118.407,639.937h1.69l2.851-6.741a9.385,9.385,0,0,0-1.756.181Z" transform="translate(-3118.407 -616.381)"/>
          <path id="Caminho_36" data-name="Caminho 36" class="cls-1" d="M3134.68,568.857h-1.221l-6.2,14.681a11.258,11.258,0,0,0-1.961.34v1.574a9.77,9.77,0,0,1,6.542.249,10.829,10.829,0,0,0,4.067.759,11.238,11.238,0,0,0,3.9-.695c.093-.035.182-.077.273-.115l2.855,6.776,1.674-.013Zm4.6,15.491a9.717,9.717,0,0,1-3.377.6,9.216,9.216,0,0,1-3.508-.652,11.174,11.174,0,0,0-3.453-.776l5.128-12.133,5.424,12.871C3139.421,584.288,3139.351,584.321,3139.278,584.348Z" transform="translate(-3123.493 -568.857)"/>
        </g>
        <g id="Grupo_6" data-name="Grupo 6" transform="translate(125.337 4.478)">
          <path id="Caminho_37" data-name="Caminho 37" class="cls-1" d="M3445.549,639.937h1.689l2.851-6.741a9.385,9.385,0,0,0-1.756.181Z" transform="translate(-3445.549 -616.381)"/>
          <path id="Caminho_38" data-name="Caminho 38" class="cls-1" d="M3461.823,568.857H3460.6l-6.2,14.681a11.259,11.259,0,0,0-1.961.34v1.574a9.769,9.769,0,0,1,6.541.249,10.83,10.83,0,0,0,4.067.759,11.238,11.238,0,0,0,3.9-.695c.093-.035.182-.077.273-.115l2.855,6.776,1.673-.013Zm4.6,15.491a9.719,9.719,0,0,1-3.377.6,9.216,9.216,0,0,1-3.508-.652,11.172,11.172,0,0,0-3.452-.776l5.127-12.133,5.424,12.871C3466.563,584.288,3466.493,584.321,3466.42,584.348Z" transform="translate(-3450.635 -568.857)"/>
        </g>
        <g id="Grupo_7" data-name="Grupo 7" transform="translate(161.366 4.478)">
          <path id="Caminho_39" data-name="Caminho 39" class="cls-1" d="M3583.412,639.937h1.689l2.851-6.741a9.382,9.382,0,0,0-1.756.181Z" transform="translate(-3583.412 -616.381)"/>
          <path id="Caminho_40" data-name="Caminho 40" class="cls-1" d="M3599.685,568.857h-1.221l-6.2,14.681a11.258,11.258,0,0,0-1.961.34v1.574a9.769,9.769,0,0,1,6.541.249,10.83,10.83,0,0,0,4.067.759,11.237,11.237,0,0,0,3.9-.695c.093-.035.182-.077.273-.115l2.855,6.776,1.673-.013Zm4.6,15.491a9.718,9.718,0,0,1-3.377.6,9.215,9.215,0,0,1-3.508-.652,11.177,11.177,0,0,0-3.452-.776l5.127-12.133,5.424,12.871C3604.426,584.288,3604.356,584.321,3604.283,584.348Z" transform="translate(-3588.498 -568.857)"/>
        </g>
        <g id="Grupo_8" data-name="Grupo 8" transform="translate(231.886 4.478)">
          <path id="Caminho_41" data-name="Caminho 41" class="cls-1" d="M3853.249,639.937h1.69l2.851-6.741a9.373,9.373,0,0,0-1.755.181Z" transform="translate(-3853.249 -616.381)"/>
          <path id="Caminho_42" data-name="Caminho 42" class="cls-1" d="M3869.522,568.857H3868.3l-6.2,14.681a11.262,11.262,0,0,0-1.961.34v1.574a9.771,9.771,0,0,1,6.542.249,10.831,10.831,0,0,0,4.067.759,11.242,11.242,0,0,0,3.9-.695c.093-.035.182-.077.273-.115l2.855,6.776,1.673-.013Zm4.6,15.491a9.717,9.717,0,0,1-3.377.6,9.213,9.213,0,0,1-3.508-.652,11.179,11.179,0,0,0-3.452-.776l5.127-12.133,5.424,12.871C3874.263,584.288,3874.192,584.321,3874.12,584.348Z" transform="translate(-3858.335 -568.857)"/>
        </g>
        <path id="Caminho_43" data-name="Caminho 43" class="cls-1" d="M3788.964,569.172v15.544h-.016a6.668,6.668,0,0,1-6.668,6.668h-.942a6.668,6.668,0,0,1-6.625-6.667h-.016V569.172h-1.572v15.544h0v.105h0a8.254,8.254,0,0,0,8.143,8.148v0h1.01a8.256,8.256,0,0,0,8.256-8.256h0V569.172Z" transform="translate(-3562.179 -564.612)"/>
        <path id="Caminho_44" data-name="Caminho 44" class="cls-1" d="M2983.434,576.172a7.2,7.2,0,0,0-7.314-7.191l-6.679-.026h-1.572v11.986c-.1,0-.206-.007-.31-.007a11.41,11.41,0,0,0-1.6.116v1.525a9.881,9.881,0,0,1,1.6-.13,10.238,10.238,0,0,1,3.623.7,9.919,9.919,0,0,0,3.437.686,9.706,9.706,0,0,0,3.747-.622,8.145,8.145,0,0,0,3.341-2.34,2.9,2.9,0,0,0,.2-.27A7.167,7.167,0,0,0,2983.434,576.172Zm-5.6,5.616a8.228,8.228,0,0,1-3.377.562,8.015,8.015,0,0,1-2.72-.613,15.3,15.3,0,0,0-2.3-.643V570.466h6.84a5.7,5.7,0,0,1,4.72,8.816c-.03.046-.059.094-.09.138-.052.074-.107.146-.162.218-.042.055-.083.11-.127.163-.012.012-.023.025-.034.038l0,0A6.443,6.443,0,0,1,2977.838,581.788Z" transform="translate(-2965.961 -564.451)"/>
        <path id="Caminho_45" data-name="Caminho 45" class="cls-1" d="M3692.548,582.747l.056,6a7.272,7.272,0,0,1-1.079.411,14.509,14.509,0,0,1-4.649.689c-6.278,0-10.256-4.081-10.256-10.65,0-6.469,4.016-10.65,10.111-10.65a13.548,13.548,0,0,1,5.63.994l.08.033c.743.332,1.547.729,1.547.729l.525-1.478a12.288,12.288,0,0,0-2.252-1.054h0a16.839,16.839,0,0,0-5.421-.872c-7.09,0-12.042,5.056-12.042,12.3,0,7.379,4.727,12.3,12.042,12.3a17.944,17.944,0,0,0,7.25-1.494v-7.357A12.979,12.979,0,0,1,3692.548,582.747Z" transform="translate(-3489.548 -562.93)"/>
        <path id="Caminho_46" data-name="Caminho 46" class="cls-1" d="M3726.738,617.282a10.361,10.361,0,0,1-3.9-.2,9.23,9.23,0,0,0-3.841-.243v1.614a9.092,9.092,0,0,1,3.464.221,11.679,11.679,0,0,0,4.277.191Z" transform="translate(-3522.197 -599.743)"/>
        <path id="Caminho_47" data-name="Caminho 47" class="cls-1" d="M3323.407,592.206l-.055-1.536a18.315,18.315,0,0,1-7.137.4,18.412,18.412,0,0,0-5.488-.3v-9.736h11.558v-1.572h-11.558V570.67H3323.5V569.1h-14.331v23.518a15.221,15.221,0,0,1,6.738-.063,17.309,17.309,0,0,0,3.416.282A13.669,13.669,0,0,0,3323.407,592.206Z" transform="translate(-3219.478 -564.557)"/>
        <path id="Caminho_48" data-name="Caminho 48" class="cls-1" d="M3619.8,551.722l-4.645,1.376.345,1.162,4.6-.831Z" transform="translate(-3445.49 -551.722)"/>
      </g>
      <g id="Grupo_10" data-name="Grupo 10" transform="translate(76.259 39.59)">
        <path id="Caminho_49" data-name="Caminho 49" class="cls-1" d="M3271.24,483.582a3.853,3.853,0,0,1,.927,2.819v4.829h-2.96v-4.346a2.1,2.1,0,0,0-.334-1.309,1.138,1.138,0,0,0-.942-.421,1.351,1.351,0,0,0-1.075.468,2.115,2.115,0,0,0-.405,1.418v4.19h-2.959v-4.346q0-1.729-1.277-1.729a1.368,1.368,0,0,0-1.09.468,2.115,2.115,0,0,0-.405,1.418v4.19h-2.959v-8.244h2.819v.689a2.968,2.968,0,0,1,1.114-.771,3.784,3.784,0,0,1,1.41-.257,3.714,3.714,0,0,1,1.589.327,2.706,2.706,0,0,1,1.137,1,3.278,3.278,0,0,1,1.261-.981,4.024,4.024,0,0,1,1.667-.343A3.344,3.344,0,0,1,3271.24,483.582Z" transform="translate(-3257.758 -482.647)"/>
        <path id="Caminho_50" data-name="Caminho 50" class="cls-1" d="M3431.9,491.129a5.518,5.518,0,0,1-1.651-.631l.888-2.025a5,5,0,0,0,1.37.568,6.117,6.117,0,0,0,1.574.211,2.514,2.514,0,0,0,1.021-.148.464.464,0,0,0,.3-.428q0-.28-.366-.4a7.643,7.643,0,0,0-1.16-.226,11.4,11.4,0,0,1-1.721-.327,2.648,2.648,0,0,1-1.222-.747,2.137,2.137,0,0,1-.515-1.527,2.3,2.3,0,0,1,.483-1.441,3.2,3.2,0,0,1,1.41-1,6.043,6.043,0,0,1,2.22-.366,8.969,8.969,0,0,1,1.822.187,5.237,5.237,0,0,1,1.511.53l-.888,2.009a4.928,4.928,0,0,0-2.431-.623,2.418,2.418,0,0,0-1.027.164.489.489,0,0,0-.328.428q0,.3.358.413a8.189,8.189,0,0,0,1.184.241,13.041,13.041,0,0,1,1.729.358,2.637,2.637,0,0,1,1.191.74,2.108,2.108,0,0,1,.507,1.5,2.284,2.284,0,0,1-.483,1.425,3.144,3.144,0,0,1-1.425.989,6.4,6.4,0,0,1-2.267.358A9.1,9.1,0,0,1,3431.9,491.129Z" transform="translate(-3385.168 -482.647)"/>
        <path id="Caminho_51" data-name="Caminho 51" class="cls-1" d="M3508.262,487.756h-6.137a1.72,1.72,0,0,0,.725,1,2.418,2.418,0,0,0,1.347.351,2.913,2.913,0,0,0,1.052-.172,3.1,3.1,0,0,0,.9-.561L3507.7,490a4.587,4.587,0,0,1-3.6,1.37,5.735,5.735,0,0,1-2.6-.561,4.129,4.129,0,0,1-2.352-3.816,4.166,4.166,0,0,1,2.258-3.785,5.316,5.316,0,0,1,4.673-.039,3.967,3.967,0,0,1,1.628,1.511,4.434,4.434,0,0,1,.6,2.344Q3508.309,487.055,3508.262,487.756Zm-5.6-2.617a1.755,1.755,0,0,0-.584,1.059h3.458a1.761,1.761,0,0,0-.584-1.059,1.876,1.876,0,0,0-2.29,0Z" transform="translate(-3436.064 -482.647)"/>
        <path id="Caminho_52" data-name="Caminho 52" class="cls-1" d="M3583.691,483.182h-2.732v4.237a2.171,2.171,0,0,1-.358,1.386,1.272,1.272,0,0,1-1.043.437h-.111a1.271,1.271,0,0,1-1.043-.437,2.167,2.167,0,0,1-.358-1.386v-4.237h-2.96v4.72a3.567,3.567,0,0,0,3.918,3.863h.9a4.151,4.151,0,0,0,2.852-.966,3.99,3.99,0,0,0,1.165-2.9v-4.72Z" transform="translate(-3492.153 -483.042)"/>
        <path id="Caminho_53" data-name="Caminho 53" class="cls-1" d="M3364.437,483.182H3361.7v4.237a2.17,2.17,0,0,1-.358,1.386,1.272,1.272,0,0,1-1.043.437h-.111a1.272,1.272,0,0,1-1.043-.437,2.171,2.171,0,0,1-.358-1.386v-4.237h-2.96v4.72a3.567,3.567,0,0,0,3.918,3.863h.9a4.15,4.15,0,0,0,2.852-.966,3.991,3.991,0,0,0,1.165-2.9v-4.72Z" transform="translate(-3330.2 -483.042)"/>
      </g>
    </g>
    <path id="Caminho_54" data-name="Caminho 54" class="cls-1" d="M3305.276,387.588c-.21,0-.42.008-.631.008a38.566,38.566,0,0,1-24.587-8.888c-.493-.407-.9-.722-1.325-1.02a22.207,22.207,0,0,0-25.586,0c-.386.272-.739.564-1.079.847l-.237.2a38.521,38.521,0,0,1-7.951,5.1,38.1,38.1,0,0,1-16.615,3.764,38.55,38.55,0,0,1-24.576-8.888c-.493-.407-.9-.722-1.325-1.021a22.208,22.208,0,0,0-25.586,0c-.386.272-.738.564-1.079.846l-.238.2a38.536,38.536,0,0,1-7.95,5.1,38.079,38.079,0,0,1-16.181,3.758v3.4a41.456,41.456,0,0,0,17.652-4.092,41.909,41.909,0,0,0,8.645-5.546l.243-.2c.3-.251.59-.489.866-.684a18.806,18.806,0,0,1,21.669,0c.354.25.689.508,1.115.859a41.955,41.955,0,0,0,26.745,9.67,41.484,41.484,0,0,0,18.086-4.1,41.923,41.923,0,0,0,8.645-5.546l.242-.2c.3-.252.59-.489.867-.684a18.8,18.8,0,0,1,21.669,0c.354.25.688.507,1.114.859a41.971,41.971,0,0,0,26.757,9.67c.211,0,.42,0,.631-.007Z" transform="translate(-136.186 -31.379)"/>
  </g>
</svg>
