<?xml version="1.0" encoding="utf-8"?>
<!-- Generator: Adobe Illustrator 23.1.0, SVG Export Plug-In . SVG Version: 6.00 Build 0)  -->
<svg version="1.1" id="Camada_1" xmlns="http://www.w3.org/2000/svg" xmlns:xlink="http://www.w3.org/1999/xlink" x="0px" y="0px"
	 viewBox="0 0 10112.5 400.7" style="enable-background:new 0 0 10112.5 400.7;" xml:space="preserve">
<style type="text/css">
	.middle-wave{fill:#03A1CD;}
</style>
<path class="middle-wave"  d="M10112.5,55.3c-153.7,11.7-300.5,68-419.9,161.9c-7.6,6-13.6,10.4-20,14.6
	c-11.3,7.6-23.2,14.5-35.4,20.7c-48.9,24.6-103.3,37.5-158.7,37.5c-55.4,0-109.9-12.9-158.8-37.6c-12.2-6.2-24-13.1-35.3-20.6
	c-5-3.3-10.1-7.3-15.5-11.6l-4.4-3.4c-47.4-37.3-99.4-68.9-154.9-94.2c-101.5-46.2-210.5-69.6-324-69.6
	c-175,0.2-344.4,58.3-479.1,164.2c-7.6,6-13.6,10.3-20,14.6c-11.3,7.6-23.2,14.5-35.4,20.7c-48.9,24.6-103.3,37.5-158.7,37.5
	c-55.4,0-109.9-12.9-158.8-37.6c-12.2-6.2-24-13.1-35.3-20.6c-5-3.3-10.1-7.3-15.5-11.6l-4.4-3.4c-47.4-37.3-99.4-68.9-154.9-94.2
	c-87.6-39.8-180.8-62.7-277.6-68.3c-1.2-0.1-2.4-0.1-3.5-0.2c-0.3,0-0.7,0-1-0.1c-12.8-0.7-25.6-1.1-38.2-1.1c-0.6,0-1.2,0-1.9,0
	c-0.6,0-1.2,0-1.9,0c-12.6,0-25.3,0.4-38.2,1.1c-0.3,0-0.7,0-1,0.1c-1.2,0.1-2.4,0.1-3.5,0.2c-96.8,5.5-189.9,28.4-277.6,68.3
	c-55.5,25.3-107.5,56.9-154.9,94.2l-4.4,3.4c-5.4,4.3-10.6,8.3-15.5,11.6c-11.3,7.6-23.1,14.4-35.3,20.6
	c-48.9,24.7-103.4,37.6-158.8,37.6c-55.3,0-109.8-12.9-158.7-37.5c-12.2-6.2-24.1-13.1-35.4-20.7c-6.4-4.2-12.3-8.6-20-14.6
	c-134.7-106-304.1-164-479.1-164.2c-113.4,0-222.4,23.4-324,69.6c-55.5,25.3-107.5,56.9-154.9,94.2l-4.4,3.4
	c-5.4,4.3-10.6,8.3-15.5,11.6c-11.3,7.6-23.1,14.4-35.3,20.6c-48.9,24.7-103.4,37.6-158.8,37.6c-55.3,0-109.8-12.9-158.7-37.5
	c-12.2-6.2-24.1-13.1-35.4-20.7c-6.3-4.2-12.3-8.6-20-14.6c-101-79.5-221.6-132-349.5-153.4v0c-42.3-7.1-85.2-10.8-127.9-10.8
	c-0.3,0-0.6,0-0.9,0c-0.3,0-0.6,0-0.9,0c-42.7,0-85.7,3.7-127.9,10.8v0c-127.8,21.4-248.4,73.9-349.5,153.4
	c-7.6,6-13.6,10.4-20,14.6c-11.3,7.6-23.2,14.5-35.4,20.7c-48.9,24.6-103.3,37.5-158.7,37.5c-55.4,0-109.9-12.9-158.8-37.6
	c-12.2-6.2-24-13.1-35.3-20.6c-5-3.3-10.1-7.3-15.5-11.6l-4.4-3.4c-47.4-37.3-99.4-68.9-154.9-94.2C3469.5,76.4,3360.5,53,3247,53
	c-175,0.2-344.4,58.3-479.1,164.2c-7.6,6-13.6,10.3-20,14.6c-11.3,7.6-23.2,14.5-35.4,20.7c-48.9,24.6-103.3,37.5-158.7,37.5
	c-55.4,0-109.9-12.9-158.8-37.6c-12.2-6.2-24-13.1-35.3-20.6c-5-3.3-10.1-7.3-15.5-11.6l-4.4-3.4c-47.4-37.3-99.4-68.9-154.9-94.2
	c-87.6-39.8-180.8-62.7-277.6-68.3c-1.2-0.1-2.4-0.1-3.5-0.2c-0.3,0-0.7,0-1-0.1c-12.8-0.7-25.6-1.1-38.2-1.1c-0.6,0-1.2,0-1.9,0
	c-0.6,0-1.2,0-1.9,0c-12.6,0-25.3,0.4-38.2,1.1c-0.3,0-0.7,0-1,0.1c-1.2,0.1-2.4,0.1-3.5,0.2c-96.8,5.5-189.9,28.4-277.6,68.3
	c-55.5,25.3-107.5,56.9-154.9,94.2l-4.4,3.4c-5.4,4.3-10.6,8.3-15.5,11.6c-11.3,7.6-23.1,14.4-35.3,20.6
	c-48.9,24.7-103.4,37.6-158.8,37.6c-55.3,0-109.8-12.9-158.7-37.5c-12.2-6.2-24.1-13.1-35.4-20.7c-6.4-4.2-12.3-8.6-20-14.6
	C823.3,111.3,653.8,53.2,478.8,53c-113.4,0-222.4,23.4-324,69.6C99.4,147.9,47.4,179.5,0,216.8v71.9c5.1-3.1,10.2-6.3,15.2-9.7
	c6.9-4.6,13.2-9.6,19.3-14.4l4.3-3.3c43.5-34.3,91.4-63.4,142.4-86.6c93.2-42.4,193.4-63.9,297.6-63.9
	c160.8,0.2,316.5,53.6,440.2,150.9c8.8,6.9,16.1,12.3,23.7,17.3c13.4,8.9,27.4,17.1,41.8,24.4c57.7,29.1,122,44.3,187.4,44.3
	c65.4,0,129.8-15.2,187.5-44.4c14.4-7.3,28.3-15.4,41.7-24.3c6.9-4.6,13.2-9.6,19.3-14.4l4.3-3.3c43.5-34.3,91.4-63.4,142.4-86.6
	c92.7-42.2,192.2-63.7,295.8-63.9c103.6,0.3,203.1,21.7,295.8,63.9c51,23.2,98.9,52.3,142.4,86.6l4.3,3.3
	c6.1,4.8,12.4,9.8,19.3,14.4c13.4,8.9,27.3,17,41.7,24.3c57.7,29.1,122.1,44.4,187.5,44.4c65.3,0,129.7-15.2,187.4-44.3
	c14.4-7.3,28.4-15.5,41.8-24.4c7.6-5.1,14.9-10.4,23.7-17.3c123.7-97.4,279.4-150.8,440.2-150.9c104.2,0,204.4,21.5,297.6,63.9
	c51,23.2,98.9,52.3,142.4,86.6l4.3,3.3c6.1,4.8,12.4,9.8,19.3,14.4c13.4,8.9,27.3,17,41.7,24.3c57.7,29.1,122.1,44.4,187.5,44.4
	c65.3,0,129.7-15.2,187.4-44.3c14.4-7.3,28.4-15.5,41.8-24.4c7.6-5.1,14.9-10.4,23.7-17.3c90.1-70.9,197.1-118.4,310.6-139.1v0
	c2.2-0.4,4.5-0.8,6.7-1.2c0.9-0.2,1.9-0.3,2.8-0.5c0.6-0.1,1.1-0.2,1.7-0.3c38.6-6.4,78-9.7,117.6-9.8c39.7,0.1,79,3.4,117.6,9.8
	c0.6,0.1,1.1,0.2,1.7,0.3c0.9,0.2,1.9,0.3,2.8,0.5c2.2,0.4,4.5,0.8,6.7,1.2v0c113.6,20.7,220.6,68.3,310.6,139.1
	c8.8,6.9,16.2,12.3,23.7,17.3c13.4,8.9,27.3,17.1,41.8,24.4c57.7,29.1,122,44.3,187.4,44.3c65.4,0,129.8-15.2,187.5-44.4
	c14.4-7.3,28.3-15.4,41.7-24.3c6.9-4.6,13.2-9.6,19.3-14.4l4.3-3.3c43.5-34.3,91.4-63.4,142.4-86.6c93.2-42.4,193.4-63.9,297.6-63.9
	c160.8,0.2,316.5,53.6,440.2,150.9c8.8,6.9,16.1,12.3,23.7,17.3c13.4,8.9,27.4,17.1,41.8,24.4c57.7,29.1,122,44.3,187.4,44.3
	c65.4,0,129.8-15.2,187.5-44.4c14.4-7.3,28.3-15.4,41.7-24.3c6.9-4.6,13.2-9.6,19.3-14.4l4.3-3.3c43.5-34.3,91.4-63.4,142.4-86.6
	c92.7-42.2,192.2-63.7,295.8-63.9c103.6,0.3,203.1,21.7,295.8,63.9c51,23.2,98.9,52.3,142.4,86.6l4.3,3.3
	c6.1,4.8,12.4,9.8,19.3,14.4c13.4,8.9,27.3,17,41.7,24.3c57.7,29.1,122.1,44.4,187.5,44.4c65.3,0,129.7-15.2,187.4-44.3
	c14.4-7.3,28.4-15.5,41.8-24.4c7.6-5.1,14.9-10.4,23.7-17.3c123.7-97.4,279.4-150.8,440.2-150.9c104.2,0,204.4,21.5,297.6,63.9
	c51,23.2,98.9,52.3,142.4,86.6l4.3,3.3c6.1,4.8,12.4,9.8,19.3,14.4c13.4,8.9,27.3,17,41.7,24.3c57.7,29.1,122.1,44.4,187.5,44.4
	c65.3,0,129.7-15.2,187.4-44.3c14.4-7.3,28.4-15.5,41.8-24.4c7.6-5.1,14.9-10.4,23.7-17.3c108.5-85.4,241.6-136.9,381.1-148.5V55.3z
	"/>
</svg>
