<?xml version="1.0" encoding="utf-8"?>
<!-- Generator: Adobe Illustrator 23.1.0, SVG Export Plug-In . SVG Version: 6.00 Build 0)  -->
<svg version="1.1" id="Camada_1" xmlns="http://www.w3.org/2000/svg" xmlns:xlink="http://www.w3.org/1999/xlink" x="0px" y="0px"
	 viewBox="0 0 68.8 2952.1" style="enable-background:new 0 0 68.8 2952.1;" xml:space="preserve">
<style type="text/css">
	.wave{fill:none;stroke:#FFFFFF;stroke-width:10;stroke-miterlimit:10;}
</style>
<path class="wave" d="M50.2,18.4c0,30.9-31.7,34.3-31.7,75s31.7,47.2,31.7,75s-31.7,45-31.7,75s31.7,48.4,31.7,75s-31.7,47.7-31.7,75
	s31.7,42,31.7,75s-31.7,50.4-31.7,75c0,24.6,15.8,37.5,15.8,37.5h0.1c0,0,15.8,12.9,15.8,37.5c0,24.6-31.7,42-31.7,75
	s31.7,47.7,31.7,75s-31.7,48.4-31.7,75c0,26.6,31.7,45,31.7,75s-31.7,47.2-31.7,75s31.7,34.3,31.7,75c0,40.7-31.7,44.1-31.7,75
	s31.7,34.3,31.7,75c0,40.7-31.7,47.2-31.7,75c0,27.8,31.7,45,31.7,75s-31.7,48.4-31.7,75c0,26.6,31.7,47.7,31.7,75
	c0,27.3-31.7,42-31.7,75s31.7,50.4,31.7,75s-15.8,37.5-15.8,37.5h-0.1c0,0-15.8,12.9-15.8,37.5s31.7,42,31.7,75s-31.7,47.7-31.7,75
	c0,27.3,31.7,48.4,31.7,75s-31.7,45-31.7,75c0,30,31.7,47.2,31.7,75c0,27.8-31.7,34.3-31.7,75c0,40.7,31.7,44.1,31.7,75
	c0,30.9-31.7,34.3-31.7,75s31.7,47.2,31.7,75s-31.7,45-31.7,75s31.7,48.4,31.7,75s-31.7,47.7-31.7,75s31.7,42,31.7,75
	s-31.7,50.4-31.7,75s15.8,37.5,15.8,37.5"/>
</svg>
