<?xml version="1.0" encoding="utf-8"?>
<!-- Generator: Adobe Illustrator 23.1.0, SVG Export Plug-In . SVG Version: 6.00 Build 0)  -->
<svg version="1.1" id="Camada_1" xmlns="http://www.w3.org/2000/svg" xmlns:xlink="http://www.w3.org/1999/xlink" x="0px" y="0px"
	 viewBox="0 0 10112.5 400.7" style="enable-background:new 0 0 10112.5 400.7;" xml:space="preserve">
<style type="text/css">
	.top-wave{fill:#03A1CD;}
</style>
<path class="top-wave"  d="M10112.5,287.1c-54.5,0-108.1-15.1-156.2-43.9c-12-7.2-23.6-15.3-34.7-24.1
	c-4.9-3.9-9.9-8.6-15.3-13.6l-4.3-4c-46.6-43.6-97.7-80.6-152.3-110.1c-99.9-54-207.1-81.4-318.6-81.4
	c-172.1,0.2-338.7,68.1-471.2,192c-7.5,7-13.4,12.1-19.6,17.1c-11.2,8.9-22.8,16.9-34.8,24.2c-48.1,28.8-101.6,43.8-156.1,43.8
	c-54.5,0-108.1-15.1-156.2-43.9c-12-7.2-23.6-15.3-34.7-24.1c-4.9-3.9-9.9-8.6-15.3-13.6l-4.3-4c-46.6-43.6-97.7-80.6-152.3-110.1
	c-99.9-54-207.1-81.4-318.6-81.4c-171.3,0.1-337.3,67.3-469.5,190.1l-2.6,2.1c-1.9,1.8-3.7,3.4-5.4,5.1c-4.7,4.5-8.4,8-13.1,11.7
	c-11.2,8.9-22.8,16.9-34.8,24.2c-2.4,1.4-4.7,2.8-7.1,4.1c-43.9,24.6-96.1,39-145,39.7c-1.3,0-2.6,0-3.9,0c-1.3,0-2.6,0-3.9,0
	c-48.9-0.7-101.1-15.1-145-39.7c-2.4-1.3-4.8-2.7-7.1-4.1c-12-7.2-23.7-15.3-34.8-24.2c-4.6-3.7-8.4-7.2-13.1-11.7
	c-1.7-1.6-3.5-3.3-5.4-5.1l-2.6-2.1C7042.8,77.4,6876.8,10.2,6705.5,10.1c-111.6,0-218.8,27.4-318.6,81.4
	c-54.6,29.5-105.7,66.5-152.3,110.1l-4.3,4c-5.3,5-10.4,9.7-15.3,13.6c-11.1,8.8-22.7,16.9-34.7,24.1
	c-48.1,28.8-101.7,43.9-156.2,43.9c-54.4,0-108-15.1-156.1-43.8c-12-7.2-23.7-15.3-34.8-24.2c-6.2-5-12.1-10.1-19.6-17.1
	c-132.4-123.9-299.1-191.7-471.2-192c-111.6,0-218.8,27.4-318.6,81.4c-54.6,29.5-105.7,66.5-152.3,110.1l-4.3,4
	c-5.3,5-10.4,9.7-15.3,13.6c-11.1,8.8-22.7,16.9-34.7,24.1c-1.3,0.8-2.6,1.5-3.9,2.3c-46.8,24.6-94.8,40.2-145.3,41.5
	c-0.6,0-1.2,0-1.8,0c-0.6,0-1.1,0-1.7,0c-1.1,0-2.2,0-3.3,0c-1.1,0-2.2,0-3.3,0c-0.6,0-1.1,0-1.7,0c-0.6,0-1.2,0-1.8,0
	c-50.5-1.3-98.5-16.9-145.3-41.5c-1.3-0.8-2.6-1.5-3.9-2.3c-12-7.2-23.6-15.3-34.7-24.1c-4.9-3.9-9.9-8.6-15.3-13.6l-4.3-4
	c-46.6-43.6-97.7-80.6-152.3-110.1c-99.9-54-207.1-81.4-318.6-81.4c-172.1,0.2-338.7,68.1-471.2,192c-7.5,7-13.4,12.1-19.6,17.1
	c-11.2,8.9-22.8,16.9-34.8,24.2c-48.1,28.8-101.6,43.8-156.1,43.8c-54.5,0-108.1-15.1-156.2-43.9c-12-7.2-23.6-15.3-34.7-24.1
	c-4.9-3.9-9.9-8.6-15.3-13.6l-4.3-4c-46.6-43.6-97.7-80.6-152.3-110.1c-99.9-54-207.1-81.4-318.6-81.4
	c-171.3,0.1-337.3,67.3-469.5,190.1l-2.6,2.1c-1.9,1.8-3.7,3.4-5.4,5.1c-4.7,4.5-8.4,8-13.1,11.7c-11.2,8.9-22.8,16.9-34.8,24.2
	c-2.4,1.4-4.7,2.8-7.1,4.1c-43.9,24.6-96.1,39-145,39.7c-1.3,0-2.6,0-3.9,0c-1.3,0-2.6,0-3.9,0c-48.9-0.7-101.1-15.1-145-39.7
	c-2.4-1.3-4.8-2.7-7.1-4.1c-12-7.2-23.7-15.3-34.8-24.2c-4.6-3.7-8.4-7.2-13.1-11.7c-1.7-1.6-3.5-3.3-5.4-5.1l-2.6-2.1
	C1591.8,77.4,1425.9,10.2,1254.5,10.1c-111.6,0-218.8,27.4-318.6,81.4C881.3,121,830.2,158,783.6,201.6l-4.3,4
	c-5.3,5-10.4,9.7-15.3,13.6c-11.1,8.8-22.7,16.9-34.7,24.1c-48.1,28.8-101.7,43.9-156.2,43.9c-54.4,0-108-15.1-156.1-43.8
	c-12-7.2-23.7-15.3-34.8-24.2c-6.3-5-12.1-10.1-19.6-17.1C258.3,104.5,132.8,41.6,0,19.3v68.3c118.7,21.8,230.9,78.9,324.5,166.5
	c8.7,8.1,15.9,14.3,23.3,20.3c13.2,10.4,26.9,20,41.1,28.5c56.7,34,120,51.8,184.3,51.8c64.3,0,127.6-17.8,184.4-51.9
	c14.2-8.5,27.8-18,41-28.5c6.8-5.4,13-11.2,19-16.8l4.2-3.9c42.8-40.1,89.9-74.1,140.1-101.3c91.7-49.6,190.2-74.7,292.7-74.7
	c158,0.1,311,62.3,432.6,175.8l2.6,2.2c1.2,1.2,2.5,2.3,3.6,3.4c5.1,4.9,10.4,9.9,17.1,15.2c13.2,10.5,26.9,20,41.1,28.5
	c11.5,6.9,23.3,13.1,35.3,18.6v0.1c43.4,20,89.7,31.2,136.7,32.9c0.2,0,0.4,0,0.5,0c1.7,0.1,3.5,0.1,5.2,0.1c0.2,0,0.5,0,0.7,0
	c1.9,0,3.8,0.1,5.6,0.1c0,0,0.1,0,0.1,0c0,0,0.1,0,0.1,0c1.9,0,3.8,0,5.6-0.1c0.2,0,0.5,0,0.7,0c1.7,0,3.5-0.1,5.2-0.1
	c0.2,0,0.4,0,0.5,0c47-1.6,93.3-12.8,136.7-32.9v-0.1c12-5.5,23.8-11.8,35.3-18.6c14.2-8.6,27.9-18.1,41.1-28.5
	c6.8-5.4,12-10.4,17.1-15.2c1.2-1.1,2.4-2.3,3.6-3.4l2.6-2.2c121.6-113.6,274.6-175.8,432.6-175.8c102.5,0,201,25.1,292.7,74.7
	c50.2,27.2,97.2,61.2,140.1,101.3l4.2,3.9c6,5.6,12.2,11.4,19,16.8c13.1,10.4,26.8,19.9,41,28.5c56.8,34.1,120.1,51.9,184.4,51.9
	c64.3,0,127.5-17.8,184.3-51.8c14.2-8.6,27.9-18.1,41.1-28.5c7.5-5.9,14.7-12.2,23.3-20.3c121.7-113.8,274.8-176.2,433-176.4
	c102.5,0,201,25.1,292.7,74.7c50.2,27.2,97.2,61.2,140.1,101.3l4.2,3.9c6,5.6,12.2,11.4,19,16.8c13.1,10.4,26.8,19.9,41,28.5
	c50.4,30.3,106.1,47.7,163,51.2c0.5,0,1,0.1,1.5,0.1c1,0.1,1.9,0.1,2.9,0.2c1.4,0.1,2.9,0.1,4.3,0.2c0.3,0,0.6,0,0.9,0
	c3.8,0.1,7.6,0.2,11.4,0.2c0.1,0,0.1,0,0.2,0c0.1,0,0.1,0,0.2,0c3.8,0,7.6-0.1,11.4-0.2c0.3,0,0.6,0,0.9,0c1.4-0.1,2.9-0.1,4.3-0.2
	c1,0,1.9-0.1,2.9-0.2c0.5,0,1-0.1,1.5-0.1c56.9-3.5,112.5-20.9,163-51.2c14.2-8.5,27.8-18,41-28.5c6.8-5.4,13-11.2,19-16.8l4.2-3.9
	c42.8-40.1,89.9-74.1,140.1-101.3c91.7-49.6,190.2-74.7,292.7-74.7c158.2,0.2,311.3,62.6,433,176.4c8.7,8.1,15.9,14.3,23.3,20.3
	c13.2,10.4,26.9,20,41.1,28.5c56.7,34,120,51.8,184.3,51.8c64.3,0,127.6-17.8,184.4-51.9c14.2-8.5,27.8-18,41-28.5
	c6.8-5.4,13-11.2,19-16.8l4.2-3.9c42.8-40.1,89.9-74.1,140.1-101.3c91.7-49.6,190.2-74.7,292.7-74.7c158,0.1,311,62.3,432.6,175.8
	l2.6,2.2c1.2,1.2,2.5,2.3,3.6,3.4c5.1,4.9,10.4,9.9,17.1,15.2c13.2,10.5,26.9,20,41.1,28.5c11.5,6.9,23.3,13.1,35.3,18.6v0.1
	c43.4,20,89.7,31.2,136.7,32.9c0.2,0,0.4,0,0.5,0c1.7,0.1,3.5,0.1,5.2,0.1c0.2,0,0.5,0,0.7,0c1.9,0,3.8,0.1,5.6,0.1c0,0,0.1,0,0.1,0
	c0,0,0.1,0,0.1,0c1.9,0,3.8,0,5.6-0.1c0.2,0,0.5,0,0.7,0c1.7,0,3.5-0.1,5.2-0.1c0.2,0,0.4,0,0.5,0c47-1.6,93.3-12.8,136.7-32.9v-0.1
	c12-5.5,23.8-11.8,35.3-18.6c14.2-8.6,27.9-18.1,41.1-28.5c6.8-5.4,12-10.4,17.1-15.2c1.2-1.1,2.4-2.3,3.6-3.4l2.6-2.2
	c121.6-113.6,274.6-175.8,432.6-175.8c102.5,0,201,25.1,292.7,74.7c50.2,27.2,97.2,61.2,140.1,101.3l4.2,3.9
	c6,5.6,12.2,11.4,19,16.8c13.1,10.4,26.8,19.9,41,28.5c56.8,34.1,120.1,51.9,184.4,51.9c64.3,0,127.5-17.8,184.3-51.8
	c14.2-8.6,27.9-18.1,41.1-28.5c7.5-5.9,14.7-12.2,23.3-20.3c121.7-113.8,274.8-176.2,433-176.4c102.5,0,201,25.1,292.7,74.7
	c50.2,27.2,97.2,61.2,140.1,101.3l4.2,3.9c6,5.6,12.2,11.4,19,16.8c13.1,10.4,26.8,19.9,41,28.5c56.8,34.1,120.1,51.9,184.4,51.9
	V287.1z"/>
</svg>
